<svg xmlns="http://www.w3.org/2000/svg" xmlns:xlink="http://www.w3.org/1999/xlink" preserveAspectRatio="xMidYMid meet" width="1080" height="1920" viewBox="0 0 1080 1920" style="width:100%;height:100%"><defs><animate repeatCount="indefinite" dur="6.125s" begin="0s" xlink:href="#_R_G_L_1_G" fill="freeze" attributeName="opacity" from="0" to="1" keyTimes="0;0.4285714;0.5646259;1" values="0;0;1;1" keySplines="0.167 0.167 0.833 0.833;0.167 0.167 0.833 0.833;0 0 0 0" calcMode="spline"/><animate repeatCount="indefinite" dur="6.125s" begin="0s" xlink:href="#_R_G_L_0_G_L_4_G" fill="freeze" attributeName="opacity" from="0" to="1" keyTimes="0;0.3333333;0.3741497;1" values="0;0;1;1" keySplines="0.167 0.167 0.833 0.833;0.167 0.167 0.833 0.833;0 0 0 0" calcMode="spline"/><animateTransform repeatCount="indefinite" dur="6.125s" begin="0s" xlink:href="#_R_G_L_0_G_L_4_G" fill="freeze" attributeName="transform" from="73" to="0" type="rotate" additive="sum" keyTimes="0;0.3333333;0.3741497;1" values="73;73;0;0" keySplines="0.167 0.167 0.833 0.833;0.167 0.167 0.833 0.833;0 0 0 0" calcMode="spline"/><animateTransform repeatCount="indefinite" dur="6.125s" begin="0s" xlink:href="#_R_G_L_0_G_L_4_G" fill="freeze" attributeName="transform" from="-172.492 52.056" to="-172.492 52.056" type="translate" additive="sum" keyTimes="0;1" values="-172.492 52.056;-172.492 52.056" keySplines="0 0 1 1" calcMode="spline"/><animate repeatCount="indefinite" dur="6.125s" begin="0s" xlink:href="#_R_G_L_0_G_L_3_G" fill="freeze" attributeName="opacity" from="0" to="1" keyTimes="0;0.2721088;0.3129252;1" values="0;0;1;1" keySplines="0.167 0.167 0.833 0.833;0.167 0.167 0.833 0.833;0 0 0 0" calcMode="spline"/><animateTransform repeatCount="indefinite" dur="6.125s" begin="0s" xlink:href="#_R_G_L_0_G_L_3_G" fill="freeze" attributeName="transform" from="146" to="0" type="rotate" additive="sum" keyTimes="0;0.2721088;0.3129252;1" values="146;146;0;0" keySplines="0.167 0.167 0.833 0.833;0.167 0.167 0.833 0.833;0 0 0 0" calcMode="spline"/><animateTransform repeatCount="indefinite" dur="6.125s" begin="0s" xlink:href="#_R_G_L_0_G_L_3_G" fill="freeze" attributeName="transform" from="14.547 47.562" to="14.547 47.562" type="translate" additive="sum" keyTimes="0;1" values="14.547 47.562;14.547 47.562" keySplines="0 0 1 1" calcMode="spline"/><animate repeatCount="indefinite" dur="6.125s" begin="0s" xlink:href="#_R_G_L_0_G_L_2_G" fill="freeze" attributeName="opacity" from="0" to="1" keyTimes="0;0.1904762;0.244898;1" values="0;0;1;1" keySplines="0.167 0.167 0.833 0.833;0.167 0.167 0.833 0.833;0 0 0 0" calcMode="spline"/><animateTransform repeatCount="indefinite" dur="6.125s" begin="0s" xlink:href="#_R_G_L_0_G_L_2_G" fill="freeze" attributeName="transform" from="220" to="0" type="rotate" additive="sum" keyTimes="0;0.1904762;0.244898;1" values="220;220;0;0" keySplines="0.167 0.167 0.833 0.833;0.167 0.167 0.833 0.833;0 0 0 0" calcMode="spline"/><animateTransform repeatCount="indefinite" dur="6.125s" begin="0s" xlink:href="#_R_G_L_0_G_L_2_G" fill="freeze" attributeName="transform" from="90.924 -134.717" to="90.924 -134.717" type="translate" additive="sum" keyTimes="0;1" values="90.924 -134.717;90.924 -134.717" keySplines="0 0 1 1" calcMode="spline"/><animate repeatCount="indefinite" dur="6.125s" begin="0s" xlink:href="#_R_G_L_0_G_L_1_G" fill="freeze" attributeName="opacity" from="0" to="1" keyTimes="0;0.1156463;0.1836735;0.4557823;1" values="0;0;1;1;1" keySplines="0.167 0.167 0.833 0.833;0.167 0.167 0.833 0.833;0.167 0.167 0.833 0.833;0 0 0 0" calcMode="spline"/><animateTransform repeatCount="indefinite" dur="6.125s" begin="0s" xlink:href="#_R_G_L_0_G_L_1_G" fill="freeze" attributeName="transform" from="286" to="0" type="rotate" additive="sum" keyTimes="0;0.1156463;0.1836735;0.4557823;1" values="286;286;0;0;0" keySplines="0.167 0.167 0.833 0.833;0.167 0.167 0.833 0.833;0.167 0.167 0.833 0.833;0 0 0 0" calcMode="spline"/><animateTransform repeatCount="indefinite" dur="6.125s" begin="0s" xlink:href="#_R_G_L_0_G_L_1_G" fill="freeze" attributeName="transform" from="-78.228 -239.667" to="-78.228 -239.667" type="translate" additive="sum" keyTimes="0;1" values="-78.228 -239.667;-78.228 -239.667" keySplines="0 0 1 1" calcMode="spline"/><animate repeatCount="indefinite" dur="6.125s" begin="0s" xlink:href="#_R_G_L_0_G_L_0_G" fill="freeze" attributeName="opacity" from="0" to="1" keyTimes="0;0.0340136;0.1156463;1" values="0;0;1;1" keySplines="0.167 0.167 0.833 0.833;0.167 0.167 0.833 0.833;0 0 0 0" calcMode="spline"/><animateTransform repeatCount="indefinite" dur="6.125s" begin="0s" xlink:href="#_R_G_L_0_G_L_0_G" fill="freeze" attributeName="transform" from="286" to="0" type="rotate" additive="sum" keyTimes="0;0.0340136;0.1156463;1" values="286;286;0;0" keySplines="0.167 0.167 0.833 0.833;0.167 0.167 0.833 0.833;0 0 0 0" calcMode="spline"/><animateTransform repeatCount="indefinite" dur="6.125s" begin="0s" xlink:href="#_R_G_L_0_G_L_0_G" fill="freeze" attributeName="transform" from="-230.764 -130.502" to="-230.764 -130.502" type="translate" additive="sum" keyTimes="0;1" values="-230.764 -130.502;-230.764 -130.502" keySplines="0 0 1 1" calcMode="spline"/><animateMotion repeatCount="indefinite" dur="6.125s" begin="0s" xlink:href="#_R_G_L_0_G" fill="freeze" keyTimes="0;0.414966;0.4285714;0.4421769;0.4557823;0.4693878;0.4829932;0.4965986;0.5102041;0.5238095;0.537415;0.5510204;0.5646259;1" path="M540 960 C540,960 540,960 540,960 C536.67,960 516.67,960 520,960 C523.33,960 560,960 560,960 C560,960 520,960 520,960 C520,960 560,960 560,960 C560,960 520,960 520,960 C520,960 560,960 560,960 C560,960 520,960 520,960 C520,960 560,960 560,960 C560,960 520,960 520,960 C520,960 556.67,960 560,960 C563.33,960 543.33,960 540,960 C540,960 540,960 540,960 " keyPoints="0;0;0.05;0.15;0.25;0.35;0.45;0.55;0.65;0.75;0.85;0.95;1;1" keySplines="0.167 0.167 0.833 0.833;0.167 0.167 0.833 0.833;0.167 0.167 0.833 0.833;0.167 0.167 0.833 0.833;0.167 0.167 0.833 0.833;0.167 0.167 0.833 0.833;0.167 0.167 0.833 0.833;0.167 0.167 0.833 0.833;0.167 0.167 0.833 0.833;0.167 0.167 0.833 0.833;0.167 0.167 0.833 0.833;0.167 0.167 0.833 0.833;0 0 0 0" calcMode="spline"/><animateTransform repeatCount="indefinite" dur="6.125s" begin="0s" xlink:href="#_R_G_L_0_G" fill="freeze" attributeName="transform" from="-540 -960" to="-540 -960" type="translate" additive="sum" keyTimes="0;1" values="-540 -960;-540 -960" keySplines="0 0 1 1" calcMode="spline"/><animate attributeType="XML" attributeName="opacity" dur="6s" from="0" to="1" xlink:href="#time_group"/></defs><g id="_R_G"><g id="_R_G_L_2_G" transform=" translate(540, 960) translate(-540.25, -960.25)"><path id="_R_G_L_2_G_D_0_P_0" fill="#ff5f5f" fill-opacity="1" fill-rule="nonzero" d=" M0.25 1920.25 C0.25,1920.25 1080.25,1920.25 1080.25,1920.25 C1080.25,1920.25 1080.25,0.25 1080.25,0.25 C1080.25,0.25 0.25,0.25 0.25,0.25 C0.25,0.25 0.25,1920.25 0.25,1920.25z "/></g><g id="_R_G_L_1_G" transform=" translate(538.237, 1113.788) translate(-357.322, -141.958)"><path id="_R_G_L_1_G_D_0_P_0" fill="#ffffff" fill-opacity="1" fill-rule="nonzero" d=" M88.77 22.79 C88.77,22.79 42.3,22.79 42.3,22.79 C30.55,22.79 21.02,32.32 21.02,44.07 C21.02,44.07 21.02,55.65 21.02,55.65 C21.02,55.65 81.11,55.65 81.11,55.65 C81.11,55.65 81.11,74.55 81.11,74.55 C81.11,74.55 21.02,74.55 21.02,74.55 C21.02,74.55 21.02,123.06 21.02,123.06 C21.02,123.06 0.25,123.06 0.25,123.06 C0.25,123.06 0.25,44.09 0.25,44.09 C0.25,21.89 18.25,3.9 40.45,3.9 C40.45,3.9 88.77,3.9 88.77,3.9 C88.77,3.9 88.77,22.79 88.77,22.79z "/><path id="_R_G_L_1_G_D_1_P_0" fill="#ffffff" fill-opacity="1" fill-rule="nonzero" d=" M332.04 123.06 C332.04,123.06 302.67,81.53 302.67,81.53 C302.67,81.53 276.37,81.53 276.37,81.53 C276.37,81.53 276.37,123.06 276.37,123.06 C276.37,123.06 255.6,123.06 255.6,123.06 C255.6,123.06 255.6,44.09 255.6,44.09 C255.6,21.89 273.6,3.9 295.8,3.9 C295.8,3.9 308.72,3.9 308.72,3.9 C315.53,3.9 321.68,4.78 327.19,6.53 C332.69,8.3 337.35,10.79 341.15,14.03 C344.95,17.26 347.87,21.23 349.92,25.94 C351.96,30.65 352.98,35.9 352.98,41.69 C352.98,46.69 352.27,51.14 350.85,55.05 C349.43,58.97 347.48,62.43 344.98,65.44 C342.48,68.44 339.5,71 336.04,73.1 C332.58,75.2 328.75,76.82 324.55,77.95 C324.55,77.95 356.73,123.06 356.73,123.06 C356.73,123.06 332.04,123.06 332.04,123.06z  M325.21 27.84 C320.88,24.47 314.79,22.79 306.94,22.79 C306.94,22.79 297.65,22.79 297.65,22.79 C285.9,22.79 276.37,32.32 276.37,44.07 C276.37,44.07 276.37,62.97 276.37,62.97 C276.37,62.97 307.11,62.97 307.11,62.97 C314.62,62.97 320.6,61.15 325.04,57.5 C329.48,53.85 331.7,48.95 331.7,42.8 C331.7,36.19 329.53,31.2 325.21,27.84z "/><path id="_R_G_L_1_G_D_2_P_0" fill="#ffffff" fill-opacity="1" fill-rule="nonzero" d=" M475.13 113.7 C471.55,115.97 467.69,117.96 463.55,119.66 C459.4,121.36 454.95,122.7 450.19,123.66 C445.42,124.62 440.42,125.11 435.2,125.11 C425.9,125.11 417.44,123.55 409.84,120.42 C402.23,117.3 395.74,112.99 390.35,107.49 C384.95,101.98 380.78,95.48 377.83,87.99 C374.88,80.5 373.41,72.39 373.41,63.65 C373.41,55.25 374.91,47.31 377.92,39.82 C380.93,32.33 385.15,25.77 390.6,20.16 C396.05,14.54 402.54,10.08 410.09,6.79 C423.24,1.06 438.24,0.25 452.11,3.64 C462.49,6.18 472.38,11.26 480.69,17.97 C480.69,17.97 467.4,33.87 467.4,33.87 C467.83,33.34 459.53,28.37 458.89,27.98 C452.37,24.1 445.36,21.39 437.72,21.07 C426.01,20.57 414.38,24.76 406.52,33.55 C403.05,37.41 400.33,41.9 398.35,47.02 C396.36,52.14 395.37,57.6 395.37,63.4 C395.37,69.54 396.33,75.22 398.26,80.45 C400.19,85.69 402.94,90.21 406.52,94.01 C410.09,97.82 414.35,100.81 419.29,102.97 C424.22,105.13 429.76,106.21 435.88,106.21 C441.56,106.21 446.87,105.38 451.8,103.73 C456.74,102.07 461.02,99.88 464.65,97.14 C464.65,97.14 464.65,74.72 464.65,74.72 C464.65,74.72 434.18,74.72 434.18,74.72 C434.18,74.72 434.18,56.5 434.18,56.5 C434.18,56.5 484.91,56.5 484.91,56.5 C484.91,56.5 484.91,106.55 484.91,106.55 C481.96,109.05 478.7,111.43 475.13,113.7z "/><path id="_R_G_L_1_G_D_3_P_0" fill="#ffffff" fill-opacity="1" fill-rule="nonzero" d=" M600.33 22.79 C600.33,22.79 554.2,22.79 554.2,22.79 C542.45,22.79 532.92,32.32 532.92,44.07 C532.92,44.07 532.92,53.43 532.92,53.43 C532.92,53.43 592.67,53.43 592.67,53.43 C592.67,53.43 592.67,72.33 592.67,72.33 C592.67,72.33 532.92,72.33 532.92,72.33 C532.92,72.33 532.92,82.89 532.92,82.89 C532.92,94.64 542.45,104.17 554.2,104.17 C554.2,104.17 601.19,104.17 601.19,104.17 C601.19,104.17 601.19,123.06 601.19,123.06 C601.19,123.06 552.35,123.06 552.35,123.06 C530.15,123.06 512.15,105.07 512.15,82.87 C512.15,82.87 512.15,44.09 512.15,44.09 C512.15,21.89 530.15,3.9 552.35,3.9 C552.35,3.9 600.33,3.9 600.33,3.9 C600.33,3.9 600.33,22.79 600.33,22.79z "/><path id="_R_G_L_1_G_D_4_P_0" fill="#ffffff" fill-opacity="1" fill-rule="nonzero" d=" M676.6 123.06 C676.6,123.06 655.49,123.06 655.49,123.06 C655.49,123.06 655.49,23.3 655.49,23.3 C655.49,23.3 617.7,23.3 617.7,23.3 C617.7,23.3 617.7,3.9 617.7,3.9 C617.7,3.9 714.39,3.9 714.39,3.9 C714.39,3.9 714.39,23.3 714.39,23.3 C714.39,23.3 676.6,23.3 676.6,23.3 C676.6,23.3 676.6,123.06 676.6,123.06z "/><path id="_R_G_L_1_G_D_5_P_0" fill="#ffffff" fill-opacity="1" fill-rule="nonzero" d=" M226.05 86.67 C222.98,94.18 218.65,100.74 213.08,106.37 C207.51,112 200.92,116.46 193.3,119.76 C185.68,123.05 177.27,124.71 168.06,124.71 C158.85,124.71 150.44,123.08 142.82,119.84 C135.2,116.6 128.67,112.2 123.21,106.63 C117.75,101.06 113.49,94.52 110.42,87.02 C107.35,79.51 105.81,71.55 105.81,63.14 C105.81,54.73 107.35,46.77 110.42,39.26 C113.49,31.76 117.81,25.19 123.38,19.56 C128.95,13.94 135.54,9.48 143.16,6.18 C150.78,2.88 159.19,1.23 168.4,1.23 C177.61,1.23 186.02,2.85 193.64,6.09 C201.26,9.33 207.8,13.74 213.26,19.31 C218.71,24.88 222.98,31.42 226.05,38.92 C229.11,46.43 230.65,54.39 230.65,62.8 C230.65,71.21 229.11,79.17 226.05,86.67z  M205.67 46.68 C203.68,41.51 200.89,36.99 197.31,33.13 C193.73,29.26 189.43,26.19 184.43,23.91 C179.43,21.64 173.97,20.51 168.06,20.51 C162.15,20.51 156.72,21.61 151.78,23.83 C146.83,26.05 142.59,29.06 139.07,32.87 C135.54,36.68 132.79,41.17 130.8,46.34 C128.81,51.52 127.81,57 127.81,62.8 C127.81,68.6 128.81,74.08 130.8,79.26 C132.79,84.43 135.57,88.95 139.16,92.81 C142.74,96.68 147.03,99.75 152.03,102.02 C157.03,104.3 162.49,105.43 168.4,105.43 C174.31,105.43 179.74,104.32 184.69,102.11 C189.64,99.89 193.87,96.88 197.39,93.07 C200.92,89.26 203.68,84.77 205.67,79.6 C207.66,74.42 208.65,68.94 208.65,63.14 C208.65,57.34 207.66,51.86 205.67,46.68z "/><path id="_R_G_L_1_G_D_6_P_0" fill="#ffffff" fill-opacity="1" fill-rule="nonzero" d=" M62.32 251.44 C62.32,251.44 22.26,191.71 22.26,191.71 C22.26,191.71 22.26,281.93 22.26,281.93 C22.26,281.93 0.25,281.93 0.25,281.93 C0.25,281.93 0.25,155.63 0.25,155.63 C0.25,155.63 23.89,155.63 23.89,155.63 C23.89,155.63 62.32,215.35 62.32,215.35 C62.32,215.35 100.75,155.63 100.75,155.63 C100.75,155.63 124.38,155.63 124.38,155.63 C124.38,155.63 124.38,281.93 124.38,281.93 C124.38,281.93 102.37,281.93 102.37,281.93 C102.37,281.93 102.37,191.35 102.37,191.35 C102.37,191.35 62.32,251.44 62.32,251.44z "/><path id="_R_G_L_1_G_D_7_P_0" fill="#ffffff" fill-opacity="1" fill-rule="nonzero" d=" M250.33 175.65 C250.33,175.65 201.43,175.65 201.43,175.65 C188.97,175.65 178.88,185.75 178.88,198.21 C178.88,198.21 178.88,208.13 178.88,208.13 C178.88,208.13 242.21,208.13 242.21,208.13 C242.21,208.13 242.21,228.16 242.21,228.16 C242.21,228.16 178.88,228.16 178.88,228.16 C178.88,228.16 178.88,239.35 178.88,239.35 C178.88,251.8 188.97,261.9 201.43,261.9 C201.43,261.9 251.23,261.9 251.23,261.9 C251.23,261.9 251.23,281.93 251.23,281.93 C251.23,281.93 199.47,281.93 199.47,281.93 C175.94,281.93 156.86,262.85 156.86,239.33 C156.86,239.33 156.86,198.23 156.86,198.23 C156.86,174.7 175.94,155.63 199.47,155.63 C199.47,155.63 250.33,155.63 250.33,155.63 C250.33,155.63 250.33,175.65 250.33,175.65z "/><path id="_R_G_L_1_G_D_8_P_0" fill="#ffffff" fill-opacity="1" fill-rule="nonzero" d=" M419.93 155.63 C419.93,155.63 441.94,155.63 441.94,155.63 C441.94,155.63 441.94,281.93 441.94,281.93 C441.94,281.93 423.4,281.93 423.4,281.93 C423.4,281.93 353.89,192.07 353.89,192.07 C353.89,192.07 353.89,281.93 353.89,281.93 C353.89,281.93 331.88,281.93 331.88,281.93 C331.88,281.93 331.88,155.63 331.88,155.63 C331.88,155.63 352.41,155.63 352.41,155.63 C352.41,155.63 419.93,242.96 419.93,242.96 C419.93,242.96 419.93,155.63 419.93,155.63z "/><path id="_R_G_L_1_G_D_9_P_0" fill="#ffffff" fill-opacity="1" fill-rule="nonzero" d=" M674.34 281.93 C674.34,281.93 651.96,281.93 651.96,281.93 C651.96,281.93 651.96,176.2 651.96,176.2 C651.96,176.2 611.91,176.2 611.91,176.2 C611.91,176.2 611.91,155.63 611.91,155.63 C611.91,155.63 714.39,155.63 714.39,155.63 C714.39,155.63 714.39,176.2 714.39,176.2 C714.39,176.2 674.34,176.2 674.34,176.2 C674.34,176.2 674.34,281.93 674.34,281.93z "/><path id="_R_G_L_1_G_D_10_P_0" fill="#ffffff" fill-opacity="1" fill-rule="nonzero" d=" M598.58 243.36 C595.33,251.31 590.75,258.27 584.84,264.24 C578.94,270.2 571.95,274.93 563.88,278.42 C555.8,281.92 546.89,283.67 537.13,283.67 C527.36,283.67 518.44,281.95 510.37,278.52 C502.3,275.08 495.37,270.41 489.59,264.51 C483.8,258.61 479.28,251.67 476.03,243.72 C472.78,235.77 471.15,227.33 471.15,218.42 C471.15,209.5 472.78,201.06 476.03,193.11 C479.28,185.16 483.86,178.2 489.77,172.23 C495.67,166.27 502.66,161.54 510.73,158.04 C518.81,154.55 527.72,152.8 537.48,152.8 C547.25,152.8 556.16,154.52 564.24,157.95 C572.31,161.39 579.24,166.06 585.02,171.96 C590.81,177.87 595.33,184.79 598.58,192.75 C601.83,200.7 603.46,209.14 603.46,218.05 C603.46,226.97 601.83,235.41 598.58,243.36z  M576.98 200.97 C574.87,195.49 571.92,190.7 568.12,186.6 C564.33,182.51 559.78,179.25 554.48,176.84 C549.17,174.43 543.39,173.23 537.13,173.23 C530.86,173.23 525.1,174.4 519.86,176.75 C514.62,179.1 510.13,182.3 506.4,186.33 C502.66,190.37 499.74,195.13 497.63,200.61 C495.52,206.1 494.47,211.91 494.47,218.05 C494.47,224.2 495.52,230.01 497.63,235.5 C499.74,240.98 502.69,245.77 506.49,249.87 C510.28,253.96 514.83,257.22 520.14,259.63 C525.44,262.04 531.22,263.24 537.48,263.24 C543.75,263.24 549.51,262.07 554.75,259.72 C559.99,257.37 564.48,254.18 568.21,250.14 C571.95,246.1 574.87,241.34 576.98,235.86 C579.09,230.38 580.14,224.56 580.14,218.42 C580.14,212.27 579.09,206.46 576.98,200.97z "/></g><g id="_R_G_L_0_G"><g id="_R_G_L_0_G_L_4_G" transform=" translate(540.101, 689.164)"><path id="_R_G_L_0_G_L_4_G_D_0_P_0" fill="#ffffff" fill-opacity="1" fill-rule="nonzero" d=" M35.78 134.34 C46.59,142.06 59.25,147.05 72.26,148.83 C58.75,147.32 46.29,142.09 35.78,134.34z "/><path id="_R_G_L_0_G_L_4_G_D_1_P_0" fill="#ffffff" fill-opacity="1" fill-rule="nonzero" d=" M10.72 43.16 C12.1,42.88 13.66,43.68 13.92,45.37 C14.41,48.63 14.97,51.88 15.76,55.11 C17.74,64.18 21.07,73.39 25.09,81.32 C30.96,92.91 38.45,102.24 47.13,109.47 C47.13,109.47 47.5,109.78 47.5,109.78 C48.1,110.27 48.72,110.77 49.33,111.24 C50.71,112.32 52.12,113.34 53.56,114.32 C54.34,114.85 55.13,115.37 55.93,115.86 C65.49,121.88 76.68,126.13 89.52,128.12 C98.29,129.5 108.08,129.82 117.33,128.91 C120.65,128.66 123.9,128.19 127.15,127.64 C128.84,127.37 130.09,128.6 130.24,130 C130.34,130.8 130.09,131.65 129.36,132.3 C113.12,146.61 92.33,151.52 72.38,148.84 C72.33,148.84 72.31,148.83 72.26,148.83 C59.24,147.06 46.59,142.06 35.79,134.34 C25.03,126.39 16.31,115.8 10.61,103.84 C1.96,85.74 0.25,64.52 8.81,44.72 C9.2,43.82 9.93,43.32 10.72,43.16z "/><path id="_R_G_L_0_G_L_4_G_D_2_P_0" fill="#ffffff" fill-opacity="1" fill-rule="nonzero" d=" M41.69 0.54 C43.07,0.25 44.63,1.06 44.89,2.75 C45.38,6.01 45.94,9.26 46.73,12.49 C48.71,21.56 52.04,30.77 56.06,38.69 C61.93,50.28 69.42,59.61 78.1,66.84 C78.1,66.84 78.47,67.16 78.47,67.16 C79.07,67.65 79.68,68.14 80.3,68.62 C81.68,69.69 83.09,70.71 84.53,71.7 C85.31,72.22 86.1,72.74 86.9,73.24 C96.46,79.26 107.65,83.5 120.48,85.5 C129.26,86.87 139.05,87.2 148.3,86.29 C151.62,86.04 154.87,85.56 158.12,85.02 C159.81,84.74 161.06,85.98 161.21,87.38 C161.31,88.18 161.05,89.03 160.32,89.67 C144.09,103.99 123.3,108.9 103.35,106.21 C103.3,106.21 103.28,106.21 103.23,106.2 C90.21,104.43 77.56,99.43 66.76,91.71 C56,83.76 47.28,73.17 41.58,61.22 C32.93,43.11 31.22,21.9 39.78,2.09 C40.17,1.2 40.9,0.69 41.69,0.54z "/><path id="_R_G_L_0_G_L_4_G_D_3_P_0" fill="#ffffff" fill-opacity="1" fill-rule="nonzero" d=" M10.61 103.84 C16.31,115.79 25.03,126.39 35.78,134.34 C25.08,126.68 16.21,116.35 10.61,103.84z "/></g><g id="_R_G_L_0_G_L_3_G" transform=" translate(538.562, 690.607)"><path id="_R_G_L_0_G_L_3_G_D_0_P_0" fill="#ffffff" fill-opacity="1" fill-rule="nonzero" d=" M125.78 134.34 C136.46,126.45 145.12,115.96 150.83,104.13 C145.22,116.51 136.39,126.74 125.78,134.34z "/><path id="_R_G_L_0_G_L_3_G_D_1_P_0" fill="#ffffff" fill-opacity="1" fill-rule="nonzero" d=" M31.32 130 C31.47,128.6 32.72,127.37 34.41,127.64 C37.66,128.19 40.92,128.66 44.24,128.9 C53.48,129.82 63.27,129.5 72.05,128.12 C84.89,126.13 96.07,121.88 105.63,115.86 C105.63,115.86 106.05,115.61 106.05,115.61 C106.7,115.19 107.36,114.76 108,114.32 C109.45,113.34 110.85,112.32 112.24,111.25 C112.98,110.67 113.71,110.07 114.43,109.47 C123.11,102.24 130.61,92.91 136.47,81.32 C140.49,73.39 143.82,64.18 145.81,55.11 C146.6,51.87 147.16,48.63 147.64,45.37 C147.9,43.68 149.46,42.88 150.84,43.16 C151.63,43.32 152.37,43.83 152.75,44.72 C161.35,64.58 159.59,85.87 150.88,104.01 C150.86,104.06 150.85,104.08 150.83,104.13 C145.12,115.96 136.46,126.45 125.78,134.34 C114.89,142.11 102.12,147.13 88.99,148.86 C69.1,151.48 48.4,146.56 32.21,132.3 C31.48,131.66 31.22,130.8 31.32,130z "/><path id="_R_G_L_0_G_L_3_G_D_2_P_0" fill="#ffffff" fill-opacity="1" fill-rule="nonzero" d=" M0.35 87.38 C0.5,85.98 1.75,84.74 3.44,85.02 C6.69,85.56 9.95,86.03 13.27,86.28 C22.51,87.2 32.3,86.87 41.08,85.5 C53.92,83.5 65.1,79.26 74.66,73.24 C74.66,73.24 75.07,72.99 75.07,72.99 C75.72,72.56 76.39,72.13 77.03,71.7 C78.48,70.71 79.88,69.69 81.27,68.62 C82.01,68.05 82.74,67.45 83.46,66.84 C92.14,59.61 99.64,50.29 105.5,38.69 C109.52,30.77 112.85,21.56 114.84,12.48 C115.63,9.25 116.19,6.01 116.67,2.75 C116.93,1.05 118.49,0.25 119.87,0.54 C120.66,0.69 121.4,1.2 121.78,2.09 C130.38,21.95 128.62,43.24 119.91,61.39 C119.89,61.43 119.88,61.46 119.86,61.5 C114.15,73.33 105.49,83.82 94.81,91.71 C83.92,99.49 71.15,104.5 58.02,106.23 C38.13,108.86 17.43,103.93 1.24,89.67 C0.51,89.03 0.25,88.17 0.35,87.38z "/><path id="_R_G_L_0_G_L_3_G_D_3_P_0" fill="#ffffff" fill-opacity="1" fill-rule="nonzero" d=" M88.99 148.86 C102.12,147.13 114.89,142.11 125.78,134.34 C115.18,142.15 102.62,147.4 88.99,148.86z "/></g><g id="_R_G_L_0_G_L_2_G" transform=" translate(540.168, 688.634)"><path id="_R_G_L_0_G_L_2_G_D_0_P_0" fill="#ffffff" fill-opacity="1" fill-rule="nonzero" d=" M130.02 55.64 C125.82,43.04 118.52,31.56 109.04,22.48 C119.08,31.63 126.08,43.2 130.02,55.64z "/><path id="_R_G_L_0_G_L_2_G_D_1_P_0" fill="#ffffff" fill-opacity="1" fill-rule="nonzero" d=" M96.71 144.14 C95.43,143.56 94.64,141.99 95.42,140.47 C96.95,137.54 98.4,134.58 99.66,131.5 C103.39,123 106.11,113.59 107.51,104.82 C109.58,91.99 109,80.04 106.23,69.09 C106.23,69.09 106.12,68.62 106.12,68.62 C105.92,67.87 105.71,67.11 105.5,66.36 C105.01,64.68 104.47,63.03 103.88,61.38 C103.56,60.5 103.22,59.62 102.87,58.75 C98.67,48.25 92.12,38.24 82.91,29.09 C76.61,22.81 68.88,16.8 60.86,12.1 C58.03,10.35 55.12,8.82 52.17,7.35 C50.64,6.58 50.36,4.85 51.06,3.62 C51.45,2.92 52.16,2.38 53.13,2.29 C74.67,0.25 94.38,8.5 108.94,22.4 C108.98,22.43 109,22.45 109.04,22.48 C118.52,31.56 125.82,43.04 130.03,55.64 C134.06,68.39 134.88,82.09 132.47,95.11 C128.82,114.84 117.74,133.01 99.17,144 C98.33,144.5 97.44,144.47 96.71,144.14z "/><path id="_R_G_L_0_G_L_2_G_D_2_P_0" fill="#ffffff" fill-opacity="1" fill-rule="nonzero" d=" M46.6 160.42 C45.32,159.84 44.53,158.27 45.31,156.75 C46.84,153.82 48.29,150.87 49.55,147.79 C53.28,139.28 56,129.87 57.4,121.1 C59.47,108.28 58.89,96.33 56.12,85.37 C56.12,85.37 56.01,84.9 56.01,84.9 C55.81,84.15 55.6,83.39 55.39,82.65 C54.9,80.96 54.36,79.31 53.77,77.66 C53.45,76.78 53.11,75.9 52.76,75.03 C48.56,64.54 42.01,54.53 32.79,45.37 C26.5,39.1 18.77,33.08 10.75,28.38 C7.92,26.63 5.01,25.1 2.06,23.63 C0.53,22.86 0.25,21.13 0.95,19.91 C1.34,19.2 2.05,18.66 3.02,18.57 C24.56,16.53 44.27,24.78 58.83,38.68 C58.87,38.71 58.89,38.73 58.93,38.76 C68.41,47.84 75.71,59.32 79.91,71.92 C83.95,84.67 84.77,98.37 82.36,111.39 C78.71,131.12 67.63,149.29 49.06,160.28 C48.22,160.78 47.33,160.76 46.6,160.42z "/><path id="_R_G_L_0_G_L_2_G_D_3_P_0" fill="#ffffff" fill-opacity="1" fill-rule="nonzero" d=" M132.47 95.11 C134.88,82.09 134.06,68.39 130.02,55.64 C134.18,68.13 135.29,81.7 132.47,95.11z "/></g><g id="_R_G_L_0_G_L_1_G" transform=" translate(539.712, 689.416)"><path id="_R_G_L_0_G_L_1_G_D_0_P_0" fill="#ffffff" fill-opacity="1" fill-rule="nonzero" d=" M74.96 0.34 C61.68,0.45 48.51,3.84 36.94,10.06 C48.75,3.34 61.91,0.25 74.96,0.34z "/><path id="_R_G_L_0_G_L_1_G_D_1_P_0" fill="#ffffff" fill-opacity="1" fill-rule="nonzero" d=" M148.83 59.37 C147.89,60.41 146.15,60.68 144.95,59.47 C142.64,57.11 140.27,54.82 137.73,52.66 C130.8,46.49 122.69,41 114.78,36.95 C103.22,31.02 91.68,27.88 80.4,27.13 C80.4,27.13 79.92,27.09 79.92,27.09 C79.14,27.05 78.36,27.01 77.58,26.99 C75.83,26.93 74.09,26.93 72.34,26.99 C71.41,27.01 70.46,27.07 69.52,27.13 C58.25,27.88 46.71,31.02 35.15,36.95 C27.24,41 19.13,46.49 12.18,52.66 C9.64,54.82 7.29,57.11 4.98,59.47 C3.78,60.68 2.04,60.41 1.09,59.37 C0.54,58.78 0.25,57.94 0.46,56.99 C5.18,35.87 19.11,19.68 36.83,10.12 C36.87,10.1 36.9,10.08 36.94,10.06 C48.51,3.84 61.68,0.45 74.96,0.34 C88.34,0.45 101.62,3.9 113.25,10.22 C130.89,19.78 144.75,35.94 149.46,56.99 C149.68,57.94 149.38,58.78 148.83,59.37z "/><path id="_R_G_L_0_G_L_1_G_D_2_P_0" fill="#ffffff" fill-opacity="1" fill-rule="nonzero" d=" M148.83 112.06 C147.89,113.1 146.15,113.37 144.95,112.16 C142.64,109.8 140.27,107.51 137.73,105.35 C130.8,99.18 122.69,93.69 114.78,89.64 C103.22,83.71 91.68,80.57 80.4,79.82 C80.4,79.82 79.92,79.78 79.92,79.78 C79.14,79.74 78.36,79.7 77.58,79.67 C75.83,79.62 74.09,79.62 72.34,79.67 C71.41,79.7 70.46,79.76 69.52,79.82 C58.25,80.57 46.71,83.71 35.15,89.64 C27.24,93.69 19.13,99.18 12.18,105.35 C9.64,107.51 7.29,109.8 4.98,112.16 C3.78,113.37 2.04,113.1 1.09,112.06 C0.54,111.47 0.25,110.63 0.46,109.68 C5.18,88.56 19.11,72.36 36.83,62.81 C36.87,62.79 36.9,62.77 36.94,62.75 C48.51,56.53 61.68,53.14 74.96,53.03 C88.34,53.14 101.62,56.59 113.25,62.91 C130.89,72.47 144.75,88.63 149.46,109.68 C149.68,110.63 149.38,111.47 148.83,112.06z "/><path id="_R_G_L_0_G_L_1_G_D_3_P_0" fill="#ffffff" fill-opacity="1" fill-rule="nonzero" d=" M113.25 10.22 C101.62,3.9 88.34,0.45 74.96,0.34 C88.12,0.25 101.38,3.39 113.25,10.22z "/></g><g id="_R_G_L_0_G_L_0_G" transform=" translate(540.621, 689.374)"><path id="_R_G_L_0_G_L_0_G_D_0_P_0" fill="#ffffff" fill-opacity="1" fill-rule="nonzero" d=" M5.5 55.62 C1.5,68.28 0.66,81.86 2.99,94.78 C0.25,81.47 1.38,68 5.5,55.62z "/><path id="_R_G_L_0_G_L_0_G_D_1_P_0" fill="#ffffff" fill-opacity="1" fill-rule="nonzero" d=" M84.47 3.6 C85.17,4.83 84.89,6.56 83.36,7.33 C80.41,8.8 77.49,10.34 74.66,12.09 C66.65,16.78 58.92,22.79 52.62,29.07 C43.41,38.22 36.86,48.23 32.66,58.73 C32.66,58.73 32.47,59.17 32.47,59.17 C32.2,59.89 31.92,60.63 31.65,61.36 C31.06,63.01 30.52,64.66 30.03,66.34 C29.77,67.24 29.53,68.16 29.3,69.07 C26.53,80.02 25.95,91.97 28.02,104.8 C29.42,113.57 32.14,122.98 35.86,131.5 C37.12,134.57 38.58,137.52 40.1,140.45 C40.89,141.97 40.1,143.54 38.82,144.12 C38.09,144.45 37.19,144.47 36.36,143.98 C17.73,132.96 6.63,114.71 3.02,94.91 C3.01,94.86 3,94.83 2.99,94.78 C0.66,81.86 1.5,68.28 5.5,55.62 C9.74,42.93 17.12,31.37 26.73,22.25 C41.28,8.44 60.92,0.25 82.4,2.27 C83.37,2.36 84.08,2.9 84.47,3.6z "/><path id="_R_G_L_0_G_L_0_G_D_2_P_0" fill="#ffffff" fill-opacity="1" fill-rule="nonzero" d=" M134.58 19.88 C135.28,21.11 135,22.84 133.47,23.61 C130.52,25.08 127.6,26.62 124.77,28.37 C116.76,33.06 109.03,39.07 102.73,45.35 C93.52,54.5 86.97,64.51 82.77,75.01 C82.77,75.01 82.59,75.45 82.59,75.45 C82.31,76.18 82.03,76.91 81.76,77.64 C81.17,79.29 80.63,80.94 80.14,82.62 C79.88,83.52 79.64,84.44 79.41,85.35 C76.64,96.31 76.06,108.26 78.13,121.08 C79.53,129.85 82.25,139.26 85.97,147.78 C87.23,150.86 88.69,153.8 90.22,156.73 C91,158.25 90.21,159.82 88.93,160.4 C88.2,160.74 87.31,160.75 86.47,160.26 C67.84,149.25 56.74,130.99 53.13,111.19 C53.12,111.14 53.11,111.11 53.1,111.07 C50.77,98.14 51.61,84.56 55.61,71.9 C59.85,59.21 67.23,47.65 76.84,38.53 C91.39,24.72 111.03,16.53 132.51,18.55 C133.48,18.64 134.19,19.18 134.58,19.88z "/><path id="_R_G_L_0_G_L_0_G_D_3_P_0" fill="#ffffff" fill-opacity="1" fill-rule="nonzero" d=" M26.73 22.25 C17.12,31.37 9.74,42.93 5.5,55.62 C9.48,43.07 16.56,31.44 26.73,22.25z "/></g></g></g><g id="time_group"/></svg>