<svg xmlns="http://www.w3.org/2000/svg" xmlns:xlink="http://www.w3.org/1999/xlink" preserveAspectRatio="xMidYMid meet" width="1080" height="1080" viewBox="0 0 1080 1080" style="width:100%;height:100%">
  <rect x="0" y="0" width="1080" height="1080" fill="black"/>
  <defs>
    <animate repeatCount="indefinite" dur="4.8333333s" begin="0s" xlink:href="#_R_G_L_9_C_0_P_0" fill="freeze" attributeName="d" attributeType="XML" from="M310 482 C310,482 39,484 39,484 C39,484 39,632 39,632 C39,632 310,630 310,630 C310,630 310,482 310,482z " to="M559.22 480.48 C559.22,480.48 39,484 39,484 C39,484 39,632 39,632 C39,632 559.22,628.48 559.22,628.48 C559.22,628.48 559.22,480.48 559.22,480.48z " keyTimes="0;0.3448276;0.4137931;0.4741379;0.5689655;1" values="M310 482 C310,482 39,484 39,484 C39,484 39,632 39,632 C39,632 310,630 310,630 C310,630 310,482 310,482z ;M310 482 C310,482 39,484 39,484 C39,484 39,632 39,632 C39,632 310,630 310,630 C310,630 310,482 310,482z ;M305.56 478.35 C305.56,478.35 39,484 39,484 C39,484 39,632 39,632 C39,632 305.56,626.35 305.56,626.35 C305.56,626.35 305.56,478.35 305.56,478.35z ;M532.22 483.48 C532.22,483.48 39,484 39,484 C39,484 39,632 39,632 C39,632 532.22,631.48 532.22,631.48 C532.22,631.48 532.22,483.48 532.22,483.48z ;M559.22 480.48 C559.22,480.48 39,484 39,484 C39,484 39,632 39,632 C39,632 559.22,628.48 559.22,628.48 C559.22,628.48 559.22,480.48 559.22,480.48z ;M559.22 480.48 C559.22,480.48 39,484 39,484 C39,484 39,632 39,632 C39,632 559.22,628.48 559.22,628.48 C559.22,628.48 559.22,480.48 559.22,480.48z " keySplines="0.167 0.167 0.833 0.833;0.167 0.167 0.833 0.833;0.167 0.167 0.833 0.833;0.167 0.167 0.833 0.833;0 0 0 0" calcMode="spline"/>
    <clipPath id="_R_G_L_9_C_0">
      <path id="_R_G_L_9_C_0_P_0" fill-rule="nonzero"/>
    </clipPath>
    <animate repeatCount="indefinite" dur="4.8333333s" begin="0s" xlink:href="#_R_G_L_9_G" fill="freeze" attributeName="opacity" from="0" to="1" keyTimes="0;0.3017241;0.3189655;0.3448276;1" values="0;0;1;1;1" keySplines="0.167 0.167 0.833 0.833;0.167 0.167 0.833 0.833;0.167 0.167 0.833 0.833;0 0 0 0" calcMode="spline"/>
    <animateMotion repeatCount="indefinite" dur="4.8333333s" begin="0s" xlink:href="#_R_G_L_9_G" fill="freeze" keyTimes="0;0.3448276;0.387931;0.4137931;0.4741379;0.5172414;0.5689655;1" path="M555 780 C555,780 555,780 555,780 C555.42,784.58 557.08,802.92 557.5,807.5 C557.5,807.5 557.5,807.5 557.5,807.5 C461.58,807.58 -17.33,808 -18,808 C-18,808 -17.33,808 -18,808 C-18,808 446.4,778.72 446.75,778.38 C446.75,778.38 446.75,778.38 446.75,778.38 " keyPoints="0;0;0.03;0.03;0.56;0.56;1;1" keySplines="0.167 0.08 0.833 0.833;0.167 0.08 0.833 0.833;0.167 0.167 0.833 0.833;0.167 0.005 0.833 0.999;0.302 0 0.833 0.463;0.302 0 0.825 0.998;0 0 0 0" calcMode="spline"/>
    <animateTransform repeatCount="indefinite" dur="4.8333333s" begin="0s" xlink:href="#_R_G_L_9_G" fill="freeze" attributeName="transform" from="1 1" to="1 1" type="scale" additive="sum" keyTimes="0;0.3448276;0.387931;0.4137931;0.4741379;0.5086207;0.5689655;1" values="1 1;1 1;2.7 2.7;2.7 2.7;2.7 2.7;2.7 2.7;1 1;1 1" keySplines="0.167 0.007 0.833 0.986;0.167 0.007 0.833 0.986;0.167 0 0.833 1;0.167 0 1 1;0 0 0.466 0.749;0.317 0 0.854 1;0 0 0 0" calcMode="spline"/>
    <animateTransform repeatCount="indefinite" dur="4.8333333s" begin="0s" xlink:href="#_R_G_L_9_G" fill="freeze" attributeName="transform" from="-199 -548" to="-199 -548" type="translate" additive="sum" keyTimes="0;1" values="-199 -548;-199 -548" keySplines="0 0 1 1" calcMode="spline"/>
    <animateTransform repeatCount="indefinite" dur="4.8333333s" begin="0s" xlink:href="#_R_G_L_8_G" fill="freeze" attributeName="transform" from="0.046689999999999995 0.30783" to="1 1" type="scale" additive="sum" keyTimes="0;0.1637931;0.1810345;0.1982759;0.2155172;1" values="0.046689999999999995 0.30783;0.046689999999999995 0.30783;0.19446000000000002 0.53855;0.59723 0.98928;1 1;1 1" keySplines="0.167 0.167 0.833 0.833;0.167 0.167 0.833 0.833;0.167 0.167 0.833 0.833;0.167 0.167 0.833 0.833;0 0 0 0" calcMode="spline"/>
    <animateTransform repeatCount="indefinite" dur="4.8333333s" begin="0s" xlink:href="#_R_G_L_8_G" fill="freeze" attributeName="transform" from="-104 -260" to="-104 -260" type="translate" additive="sum" keyTimes="0;1" values="-104 -260;-104 -260" keySplines="0 0 1 1" calcMode="spline"/>
    <animate repeatCount="indefinite" dur="4.8333333s" begin="0s" xlink:href="#_R_G_L_8_G_M" fill="freeze" attributeName="opacity" from="0" to="1" keyTimes="0;0.1034483;0.1034491;1" values="0;0;1;1" keySplines="0 0 0 0;0 0 0 0;0 0 0 0" calcMode="spline"/>
    <animate repeatCount="indefinite" dur="4.8333333s" begin="0s" xlink:href="#_R_G_L_7_G" fill="freeze" attributeName="opacity" from="0" to="1" keyTimes="0;0.0517241;1" values="0;1;1" keySplines="0.167 0.167 0.833 0.833;0 0 0 0" calcMode="spline"/>
    <animateTransform repeatCount="indefinite" dur="4.8333333s" begin="0s" xlink:href="#_R_G_L_7_G" fill="freeze" attributeName="transform" from="0.24 0.24" to="1 1" type="scale" additive="sum" keyTimes="0;0.0603448;0.1034483;1" values="0.24 0.24;1.35 1.35;1 1;1 1" keySplines="0.539 0 0.833 0.997;0.167 0 0.54 1;0 0 0 0" calcMode="spline"/>
    <animateTransform repeatCount="indefinite" dur="4.8333333s" begin="0s" xlink:href="#_R_G_L_7_G" fill="freeze" attributeName="transform" from="-298 -316" to="-298 -316" type="translate" additive="sum" keyTimes="0;1" values="-298 -316;-298 -316" keySplines="0 0 1 1" calcMode="spline"/>
    <animate repeatCount="indefinite" dur="4.8333333s" begin="0s" xlink:href="#_R_G_L_6_G" fill="freeze" attributeName="opacity" from="0" to="0" keyTimes="0;0.0517241;0.25;0.2586207;0.2672414;1" values="0;1;1;1;0;0" keySplines="0.167 0.167 0.833 0.833;0.167 0.167 0.833 0.833;0.167 0.167 0.833 0.833;0.167 0.167 0.833 0.833;0 0 0 0" calcMode="spline"/>
    <animateTransform repeatCount="indefinite" dur="4.8333333s" begin="0s" xlink:href="#_R_G_L_6_G_N_8_T_0" fill="freeze" attributeName="transform" from="0.24 0.24" to="1 1" type="scale" additive="sum" keyTimes="0;0.0603448;0.1034483;1" values="0.24 0.24;1.35 1.35;1 1;1 1" keySplines="0.539 0 0.833 0.997;0.167 0 0.54 1;0 0 0 0" calcMode="spline"/>
    <animateTransform repeatCount="indefinite" dur="4.8333333s" begin="0s" xlink:href="#_R_G_L_6_G_N_8_T_0" fill="freeze" attributeName="transform" from="-298 -316" to="-298 -316" type="translate" additive="sum" keyTimes="0;1" values="-298 -316;-298 -316" keySplines="0 0 1 1" calcMode="spline"/>
    <animate repeatCount="indefinite" dur="4.8333333s" begin="0s" xlink:href="#_R_G_L_5_C_0_P_0" fill="freeze" attributeName="d" attributeType="XML" from="M-91 -148 C-91,-148 -467,-102 -467,-102 C-467,-102 -555,219 -555,219 C-555,219 -459,268 -459,268 C-459,268 -324,216 -324,216 C-324,216 -279,251 -226,249 C-173,247 -165,244 -119,215 C-73,186 -60,144 -49,113 C-38,82 -47,28 -54,10 C-61,-8 -91,-148 -91,-148z " to="M435 46 C435,46 59,92 59,92 C59,92 -29,413 -29,413 C-29,413 67,462 67,462 C67,462 202,410 202,410 C202,410 247,445 300,443 C353,441 361,438 407,409 C453,380 466,338 477,307 C488,276 479,222 472,204 C465,186 435,46 435,46z " keyTimes="0;0.0258621;0.1293103;1" values="M-91 -148 C-91,-148 -467,-102 -467,-102 C-467,-102 -555,219 -555,219 C-555,219 -459,268 -459,268 C-459,268 -324,216 -324,216 C-324,216 -279,251 -226,249 C-173,247 -165,244 -119,215 C-73,186 -60,144 -49,113 C-38,82 -47,28 -54,10 C-61,-8 -91,-148 -91,-148z ;M-91 -148 C-91,-148 -467,-102 -467,-102 C-467,-102 -555,219 -555,219 C-555,219 -459,268 -459,268 C-459,268 -324,216 -324,216 C-324,216 -279,251 -226,249 C-173,247 -165,244 -119,215 C-73,186 -60,144 -49,113 C-38,82 -47,28 -54,10 C-61,-8 -91,-148 -91,-148z ;M435 46 C435,46 59,92 59,92 C59,92 -29,413 -29,413 C-29,413 67,462 67,462 C67,462 202,410 202,410 C202,410 247,445 300,443 C353,441 361,438 407,409 C453,380 466,338 477,307 C488,276 479,222 472,204 C465,186 435,46 435,46z ;M435 46 C435,46 59,92 59,92 C59,92 -29,413 -29,413 C-29,413 67,462 67,462 C67,462 202,410 202,410 C202,410 247,445 300,443 C353,441 361,438 407,409 C453,380 466,338 477,307 C488,276 479,222 472,204 C465,186 435,46 435,46z " keySplines="0.167 0.167 0.833 0.833;0.167 0.167 0.833 0.833;0 0 0 0" calcMode="spline"/>
    <clipPath id="_R_G_L_5_C_0">
      <path id="_R_G_L_5_C_0_P_0" fill-rule="nonzero"/>
    </clipPath>
    <animateMotion repeatCount="indefinite" dur="4.8333333s" begin="0s" xlink:href="#_R_G_L_5_G" fill="freeze" keyTimes="0;0.0172414;0.1293103;1" path="M1066 730 C1066,730 1066,730 1066,730 C978.33,698.33 627.67,571.67 540,540 C540,540 540,540 540,540 " keyPoints="0;0;1;1" keySplines="0.347 0.004 0.868 1;0.347 0.004 0.868 1;0 0 0 0" calcMode="spline"/>
    <animateTransform repeatCount="indefinite" dur="4.8333333s" begin="0s" xlink:href="#_R_G_L_5_G" fill="freeze" attributeName="transform" from="-298 -316" to="-298 -316" type="translate" additive="sum" keyTimes="0;1" values="-298 -316;-298 -316" keySplines="0 0 1 1" calcMode="spline"/>
    <animate repeatCount="indefinite" dur="4.8333333s" begin="0s" xlink:href="#_R_G_L_5_G_M" fill="freeze" attributeName="opacity" from="1" to="0" keyTimes="0;0.1551724;0.1551724;1" values="1;1;0;0" keySplines="0 0 0 0;0 0 0 0;0 0 0 0" calcMode="spline"/>
    <animate repeatCount="indefinite" dur="4.8333333s" begin="0s" xlink:href="#_R_G_L_4_G" fill="freeze" attributeName="opacity" from="0" to="1" keyTimes="0;0.2413793;0.2758621;1" values="0;0;1;1" keySplines="0.167 0.167 0.833 0.833;0.167 0.167 0.833 0.833;0 0 0 0" calcMode="spline"/>
    <animateMotion repeatCount="indefinite" dur="4.8333333s" begin="0s" xlink:href="#_R_G_L_4_G" fill="freeze" keyTimes="0;0.2241379;0.2758621;1" path="M592 412 C592,412 592,412 592,412 C583.33,433.33 548.67,518.67 540,540 C540,540 540,540 540,540 " keyPoints="0;0;1;1" keySplines="0.167 0 0.833 1;0.167 0 0.833 1;0 0 0 0" calcMode="spline"/>
    <animateTransform repeatCount="indefinite" dur="4.8333333s" begin="0s" xlink:href="#_R_G_L_4_G" fill="freeze" attributeName="transform" from="-298 -316" to="-298 -316" type="translate" additive="sum" keyTimes="0;1" values="-298 -316;-298 -316" keySplines="0 0 1 1" calcMode="spline"/>
    <animate repeatCount="indefinite" dur="4.8333333s" begin="0s" xlink:href="#_R_G_L_2_G_M" fill="freeze" attributeName="opacity" from="0" to="0" keyTimes="0;0.2155172;0.2155181;0.2758621;0.2758621;1" values="0;0;1;1;0;0" keySplines="0 0 0 0;0 0 0 0;0 0 0 0;0 0 0 0;0 0 0 0" calcMode="spline"/>
    <animate repeatCount="indefinite" dur="4.8333333s" begin="0s" xlink:href="#_R_G_L_1_G_M" fill="freeze" attributeName="opacity" from="0" to="1" keyTimes="0;0.1551724;0.1551733;1" values="0;0;1;1" keySplines="0 0 0 0;0 0 0 0;0 0 0 0" calcMode="spline"/>
    <animateMotion repeatCount="indefinite" dur="4.8333333s" begin="0s" xlink:href="#_R_G_L_0_G" fill="freeze" keyTimes="0;0.2241379;0.25;0.2758621;1" path="M686.5 530 C686.5,530 686.5,530 686.5,530 C686.67,531.33 687.5,538 687.5,538 C687.5,538 686.67,531.33 686.5,530 C686.5,530 686.5,530 686.5,530 " keyPoints="0;0;0.5;1;1" keySplines="0.167 0.007 0.833 0.993;0.167 0.007 0.833 0.993;0.307 0.013 0.833 1;0 0 0 0" calcMode="spline"/>
    <animateTransform repeatCount="indefinite" dur="4.8333333s" begin="0s" xlink:href="#_R_G_L_0_G" fill="freeze" attributeName="transform" from="0" to="0" type="rotate" additive="sum" keyTimes="0;0.2241379;0.25;0.2758621;1" values="0;0;14;0;0" keySplines="0.167 0.001 0.833 0.997;0.167 0.001 0.833 0.997;0.167 0.004 0.833 0.998;0 0 0 0" calcMode="spline"/>
    <animateTransform repeatCount="indefinite" dur="4.8333333s" begin="0s" xlink:href="#_R_G_L_0_G" fill="freeze" attributeName="transform" from="-1717 -1545" to="-1717 -1545" type="translate" additive="sum" keyTimes="0;1" values="-1717 -1545;-1717 -1545" keySplines="0 0 1 1" calcMode="spline"/>
    <animate repeatCount="indefinite" dur="4.8333333s" begin="0s" xlink:href="#_R_G_L_0_G_M" fill="freeze" attributeName="opacity" from="0" to="1" keyTimes="0;0.1551724;0.1551733;1" values="0;0;1;1" keySplines="0 0 0 0;0 0 0 0;0 0 0 0" calcMode="spline"/>
    <animate attributeType="XML" attributeName="opacity" dur="5s" from="0" to="1" xlink:href="#time_group"/>
  </defs>
  <g id="_R_G">
    <g id="_R_G_L_9_G">
      <g clip-path="url(#_R_G_L_9_C_0)">
        <path id="_R_G_L_9_G_G_0_D_0_P_0" fill="#f9cf09" fill-opacity="1" fill-rule="nonzero" d=" M119.49 528.43 C119.49,528.43 119.49,533.57 119.49,533.57 C119.49,533.57 107.77,533.57 107.77,533.57 C107.77,533.57 107.77,568.15 107.77,568.15 C107.77,568.15 101.81,568.15 101.81,568.15 C101.81,568.15 101.81,533.57 101.81,533.57 C101.81,533.57 90.08,533.57 90.08,533.57 C90.08,533.57 90.08,528.43 90.08,528.43 C90.08,528.43 119.49,528.43 119.49,528.43z "/>
        <path id="_R_G_L_9_G_G_0_D_1_P_0" fill="#f9cf09" fill-opacity="1" fill-rule="nonzero" d=" M138.56 568.15 C136.47,568.15 134.49,567.79 132.63,567.09 C130.77,566.39 129.15,565.44 127.77,564.24 C126.39,563.05 125.3,561.65 124.48,560.04 C123.66,558.44 123.26,556.73 123.26,554.92 C123.26,554.92 123.26,541.65 123.26,541.65 C123.26,539.84 123.66,538.14 124.48,536.53 C125.3,534.92 126.39,533.52 127.77,532.33 C129.15,531.14 130.77,530.19 132.63,529.48 C134.49,528.78 136.47,528.43 138.56,528.43 C140.65,528.43 142.62,528.78 144.48,529.48 C146.35,530.19 147.97,531.14 149.35,532.33 C150.73,533.52 151.82,534.92 152.64,536.53 C153.45,538.14 153.86,539.84 153.86,541.65 C153.86,541.65 153.86,554.92 153.86,554.92 C153.86,556.77 153.45,558.49 152.64,560.1 C151.82,561.71 150.73,563.11 149.35,564.3 C147.97,565.49 146.35,566.43 144.48,567.12 C142.62,567.8 140.65,568.15 138.56,568.15z  M138.56 533.57 C137.26,533.57 136.05,533.79 134.92,534.22 C133.79,534.66 132.8,535.24 131.94,535.96 C131.09,536.68 130.42,537.53 129.94,538.51 C129.45,539.48 129.22,540.53 129.22,541.65 C129.22,541.65 129.22,554.92 129.22,554.92 C129.22,556.04 129.45,557.09 129.94,558.07 C130.42,559.04 131.09,559.9 131.94,560.64 C132.8,561.38 133.79,561.96 134.92,562.38 C136.05,562.79 137.26,563 138.56,563 C139.85,563 141.07,562.79 142.2,562.38 C143.32,561.96 144.31,561.38 145.14,560.64 C145.98,559.9 146.65,559.04 147.15,558.07 C147.65,557.09 147.9,556.04 147.9,554.92 C147.9,554.92 147.9,541.65 147.9,541.65 C147.9,540.53 147.65,539.48 147.15,538.51 C146.65,537.53 145.98,536.68 145.14,535.96 C144.31,535.24 143.32,534.66 142.2,534.22 C141.07,533.79 139.85,533.57 138.56,533.57z "/>
        <path id="_R_G_L_9_G_G_0_D_2_P_0" fill="#f9cf09" fill-opacity="1" fill-rule="nonzero" d=" M174.37 568.15 C172.03,568.15 169.84,567.77 167.81,567.01 C165.79,566.25 164.02,565.22 162.51,563.92 C161.01,562.62 159.82,561.09 158.94,559.34 C158.06,557.59 157.62,555.72 157.62,553.73 C157.62,553.73 157.62,528.42 157.62,528.42 C157.62,528.42 163.58,528.42 163.58,528.42 C163.58,528.42 163.58,553.73 163.58,553.73 C163.58,555 163.86,556.2 164.43,557.33 C164.99,558.47 165.77,559.46 166.75,560.29 C167.73,561.12 168.88,561.78 170.2,562.27 C171.51,562.75 172.9,563 174.37,563 C175.87,563 177.27,562.75 178.57,562.27 C179.87,561.78 181.01,561.12 181.99,560.29 C182.97,559.46 183.74,558.47 184.31,557.33 C184.87,556.2 185.16,555 185.16,553.73 C185.16,553.73 185.16,528.42 185.16,528.42 C185.16,528.42 191.11,528.42 191.11,528.42 C191.11,528.42 191.11,553.73 191.11,553.73 C191.11,555.72 190.67,557.59 189.8,559.34 C188.92,561.09 187.73,562.62 186.22,563.92 C184.72,565.22 182.95,566.25 180.92,567.01 C178.89,567.77 176.71,568.15 174.37,568.15z "/>
        <path id="_R_G_L_9_G_G_0_D_3_P_0" fill="#f9cf09" fill-opacity="1" fill-rule="nonzero" d=" M210.18 568.15 C208.05,568.15 206.05,567.8 204.19,567.12 C202.33,566.43 200.71,565.49 199.33,564.3 C197.95,563.11 196.86,561.72 196.07,560.13 C195.27,558.54 194.88,556.82 194.88,554.98 C194.88,554.98 194.88,541.65 194.88,541.65 C194.88,539.84 195.28,538.14 196.1,536.53 C196.91,534.92 198.01,533.52 199.39,532.33 C200.77,531.14 202.39,530.19 204.25,529.48 C206.11,528.78 208.09,528.42 210.18,528.42 C211.85,528.42 213.47,528.66 215.04,529.13 C216.61,529.6 218.03,530.25 219.3,531.08 C220.58,531.91 221.7,532.91 222.66,534.06 C223.62,535.22 224.33,536.48 224.79,537.85 C224.79,537.85 219.08,539.32 219.08,539.32 C218.5,537.62 217.38,536.24 215.73,535.17 C214.08,534.11 212.23,533.57 210.18,533.57 C208.88,533.57 207.67,533.79 206.54,534.22 C205.41,534.66 204.42,535.24 203.56,535.96 C202.7,536.68 202.03,537.54 201.55,538.53 C201.07,539.53 200.83,540.56 200.83,541.65 C200.83,541.65 200.83,554.98 200.83,554.98 C200.83,556.1 201.07,557.15 201.55,558.12 C202.03,559.1 202.7,559.95 203.56,560.67 C204.42,561.39 205.41,561.96 206.54,562.38 C207.67,562.79 208.88,563 210.18,563 C212.18,563 213.99,562.5 215.6,561.51 C217.21,560.52 218.33,559.2 218.96,557.58 C218.96,557.58 224.6,559.26 224.6,559.26 C224.06,560.6 223.31,561.81 222.34,562.89 C221.38,563.97 220.27,564.9 219.02,565.68 C217.77,566.46 216.39,567.06 214.88,567.5 C213.38,567.93 211.81,568.15 210.18,568.15z "/>
        <path id="_R_G_L_9_G_G_0_D_4_P_0" fill="#f9cf09" fill-opacity="1" fill-rule="nonzero" d=" M245.3 528.43 C247.6,528.43 249.77,528.81 251.82,529.56 C253.87,530.32 255.64,531.36 257.15,532.68 C258.65,534 259.85,535.54 260.72,537.31 C261.6,539.08 262.04,540.96 262.04,542.95 C262.04,542.95 262.04,568.15 262.04,568.15 C262.04,568.15 256.08,568.15 256.08,568.15 C256.08,568.15 256.08,555.36 256.08,555.36 C256.08,555.36 234.51,555.36 234.51,555.36 C234.51,555.36 234.51,568.15 234.51,568.15 C234.51,568.15 228.55,568.15 228.55,568.15 C228.55,568.15 228.55,542.95 228.55,542.95 C228.55,540.96 228.99,539.08 229.87,537.31 C230.75,535.54 231.94,534 233.44,532.68 C234.95,531.36 236.71,530.32 238.74,529.56 C240.77,528.81 242.96,528.43 245.3,528.43z  M256.08 550.21 C256.08,550.21 256.08,542.95 256.08,542.95 C256.08,541.65 255.8,540.43 255.24,539.29 C254.67,538.15 253.9,537.16 252.92,536.31 C251.93,535.46 250.79,534.79 249.5,534.31 C248.2,533.82 246.8,533.57 245.3,533.57 C243.79,533.57 242.39,533.82 241.1,534.31 C239.8,534.79 238.66,535.46 237.68,536.31 C236.69,537.16 235.92,538.15 235.36,539.29 C234.79,540.43 234.51,541.65 234.51,542.95 C234.51,542.95 234.51,550.21 234.51,550.21 C234.51,550.21 256.08,550.21 256.08,550.21z "/>
        <path id="_R_G_L_9_G_G_0_D_5_P_0" fill="#f9cf09" fill-opacity="1" fill-rule="nonzero" d=" M297.79 568.15 C297.79,568.15 291.83,568.15 291.83,568.15 C291.83,565.91 291.71,563.49 291.49,560.89 C291.26,558.29 290.83,555.69 290.2,553.11 C289.57,550.53 288.69,548.04 287.57,545.66 C286.44,543.27 284.95,541.16 283.11,539.32 C281.69,537.87 280.04,536.64 278.16,535.63 C276.28,534.62 274.14,533.97 271.76,533.68 C271.76,533.68 271.76,568.15 271.76,568.15 C271.76,568.15 265.8,568.15 265.8,568.15 C265.8,568.15 265.8,528.42 265.8,528.42 C265.8,528.42 268,528.42 268,528.42 C269,528.42 270.07,528.48 271.2,528.59 C273.62,528.8 275.88,529.32 277.97,530.13 C280.06,530.95 281.96,531.98 283.68,533.25 C285.39,534.51 286.93,535.96 288.29,537.58 C289.65,539.21 290.83,540.94 291.83,542.79 C291.83,542.79 291.83,528.42 291.83,528.42 C291.83,528.42 297.79,528.42 297.79,528.42 C297.79,528.42 297.79,568.15 297.79,568.15z "/>
        <path id="_R_G_L_9_G_G_0_D_6_P_0" fill="#ffffff" fill-opacity="1" fill-rule="nonzero" d=" M392.79 549.26 C392.79,562.98 383.91,570.31 373.09,570.31 C361.84,570.31 354.02,562.1 354.02,550.01 C354.02,537.34 362.34,529.01 373.67,529.01 C385.26,529.01 392.79,537.38 392.79,549.26z  M359.81 549.89 C359.81,558.45 364.75,566.11 373.39,566.11 C382.1,566.11 386.99,558.57 386.99,549.49 C386.99,541.53 382.58,533.21 373.46,533.21 C364.35,533.21 359.81,541.15 359.81,549.89z "/>
        <path id="_R_G_L_9_G_G_0_D_7_P_0" fill="#ffffff" fill-opacity="1" fill-rule="nonzero" d=" M407.6 569.65 C407.6,569.65 407.6,552.7 407.6,552.7 C407.6,552.7 394.15,529.67 394.15,529.67 C394.15,529.67 400.42,529.67 400.42,529.67 C400.42,529.67 406.38,540.71 406.38,540.71 C408,543.74 409.3,545.6 410.6,548.4 C410.6,548.4 410.73,548.4 410.73,548.4 C411.9,545.77 413.35,543.72 414.99,540.68 C414.99,540.68 421.11,529.67 421.11,529.67 C421.11,529.67 427.32,529.67 427.32,529.67 C427.32,529.67 413.12,552.63 413.12,552.63 C413.12,552.63 413.12,569.65 413.12,569.65 C413.12,569.65 407.6,569.65 407.6,569.65z "/>
        <path id="_R_G_L_9_G_G_0_D_8_P_0" fill="#ffffff" fill-opacity="1" fill-rule="nonzero" d=" M433.96 557.09 C433.96,557.09 429.58,569.65 429.58,569.65 C429.58,569.65 423.89,569.65 423.89,569.65 C423.89,569.65 438.33,529.67 438.33,529.67 C438.33,529.67 444.92,529.67 444.92,529.67 C444.92,529.67 459.41,569.65 459.41,569.65 C459.41,569.65 453.55,569.65 453.55,569.65 C453.55,569.65 449.01,557.09 449.01,557.09 C449.01,557.09 433.96,557.09 433.96,557.09z  M447.9 553.05 C447.9,553.05 443.7,541.54 443.7,541.54 C442.78,538.92 442.14,536.54 441.51,534.25 C441.51,534.25 441.36,534.25 441.36,534.25 C440.75,536.58 440.09,539.03 439.26,541.47 C439.26,541.47 435.08,553.05 435.08,553.05 C435.08,553.05 447.9,553.05 447.9,553.05z "/>
        <path id="_R_G_L_9_G_G_0_D_9_P_0" fill="#ffffff" fill-opacity="1" fill-rule="nonzero" d=" M465.61 529.67 C465.61,529.67 471.12,529.67 471.12,529.67 C471.12,529.67 471.12,565.29 471.12,565.29 C471.12,565.29 489.26,565.29 489.26,565.29 C489.26,565.29 489.26,569.65 489.26,569.65 C489.26,569.65 465.61,569.65 465.61,569.65 C465.61,569.65 465.61,529.67 465.61,529.67z "/>
        <path id="_R_G_L_9_G_G_0_D_10_P_0" fill="#ffffff" fill-opacity="1" fill-rule="nonzero" d=" M517.29 550.91 C517.29,550.91 500.84,550.91 500.84,550.91 C500.84,550.91 500.84,565.35 500.84,565.35 C500.84,565.35 519.24,565.35 519.24,565.35 C519.24,565.35 519.24,569.65 519.24,569.65 C519.24,569.65 495.33,569.65 495.33,569.65 C495.33,569.65 495.33,529.67 495.33,529.67 C495.33,529.67 518.27,529.67 518.27,529.67 C518.27,529.67 518.27,533.97 518.27,533.97 C518.27,533.97 500.84,533.97 500.84,533.97 C500.84,533.97 500.84,546.63 500.84,546.63 C500.84,546.63 517.29,546.63 517.29,546.63 C517.29,546.63 517.29,550.91 517.29,550.91z "/>
        <path id="_R_G_L_9_G_G_0_D_11_P_0" fill="#ffffff" fill-opacity="1" fill-rule="nonzero" d=" M326.44 534.3 C326.44,534.3 326.44,534.3 326.44,534.3 C326.44,534.3 336.09,534.3 336.09,534.3 C336.09,534.3 340.59,534.17 340.46,539.7 C340.33,545.23 336.47,545.49 336.47,545.49 C336.47,545.49 326.44,545.61 326.44,545.61 C326.44,545.61 326.44,534.3 326.44,534.3z  M321.17 528.51 C321.17,528.51 320.91,568.11 320.91,568.11 C320.91,568.11 326.57,568.11 326.57,568.11 C326.57,568.11 326.57,550.37 326.57,550.37 C326.57,550.37 339.94,568.11 339.94,568.11 C339.94,568.11 346.11,567.86 346.11,567.86 C346.11,567.86 333,550.11 333,550.11 C333,550.11 347.14,551.4 345.86,538.8 C346.11,531.08 338.14,528.51 338.14,528.51 C338.14,528.51 321.17,528.51 321.17,528.51z "/>
      </g>
    </g>
    <g id="_R_G_L_8_G_M">
      <g id="_R_G_L_8_G" transform=" translate(346, 484)">
        <path id="_R_G_L_8_G_D_0_P_0" fill="#8fc751" fill-opacity="1" fill-rule="nonzero" d=" M124.46 277.03 C124.46,277.03 237.09,251.57 237.09,251.57 C237.09,251.57 275.93,254.47 275.93,254.47 C275.93,254.47 279.51,294 279.51,294 C279.51,294 279.51,298.63 279.51,298.63 C279.51,298.63 247.89,358.8 247.89,358.8 C247.89,358.8 211.63,387.34 211.63,387.34 C211.63,387.34 181.54,393.51 181.54,393.51 C181.54,393.51 160.03,374.73 151.46,363.43 C143.86,353.42 137.93,341.63 133.53,330.26 C128.52,317.33 124.59,302.97 123.29,290.67 C122.63,284.38 124.46,277.03 124.46,277.03z "/>
        <path id="_R_G_L_8_G_D_1_P_0" fill="#ffe56e" fill-opacity="1" fill-rule="nonzero" d=" M122.66 261.67 C122.25,234.25 120.77,223.66 134.16,195.29 C141.25,180.25 153.87,150.38 161.23,141.51 C168.98,132.18 176.6,122.55 185.91,114.77 C195.44,106.82 206.12,100.13 217.29,94.71 C229.24,88.92 242.08,85.08 254.83,81.34 C264.93,78.38 275.33,76.56 285.69,74.66 C304.25,71.25 315.96,71.83 330.94,73.63 C352.75,76.25 369.02,84.91 387,93.17 C406.75,102.25 412.79,110.09 423.57,120.96 C437.25,134.75 443.21,139.65 449.23,148.2 C455.25,156.75 467.83,173.17 473.87,187.86 C480.25,203.36 482.94,221.77 486.26,238.2 C488.09,247.3 488.11,256.73 487.73,266 C487.38,274.54 485.3,283.34 484.07,291.39 C482.59,301.08 479.03,313.16 477.13,319.97 C474.52,329.29 470.25,338.25 466.16,346.86 C458.11,363.78 452.28,370.32 439.75,384.24 C423.28,402.52 402.56,417.64 380.12,427.73 C357.35,437.97 335.75,443.25 307,443.94 C296.25,444.2 269.39,437.65 269.39,437.65 C269.39,437.65 279.86,434.35 282.05,423.55 C284.25,412.75 269.34,353.17 269.34,353.17 C269.34,353.17 293.03,303.9 293.03,303.9 C293.03,303.9 280.11,290.46 280.11,290.46 C280.11,290.46 280.15,267.48 272.27,261.12 C262.66,253.34 235.76,254.6 235.76,254.6 C235.76,254.6 161.67,276.5 123.5,281.11 C123.25,281 122.75,267.65 122.66,261.67z "/>
        <path id="_R_G_L_8_G_D_2_P_0" fill="#239962" fill-opacity="1" fill-rule="nonzero" d=" M276.36 270.44 C271.15,272.44 257.14,283.97 247.11,317.91 C237.08,351.86 208.54,377.31 166.89,383.48 C200.83,411.26 225.51,424.37 225.51,424.37 C225.51,424.37 247.97,433.71 247.97,433.71 C247.97,433.71 278.44,439.71 278.44,439.71 C278.44,439.71 290.62,440.62 286.69,417.19 C282.75,393.75 271.8,351.86 271.8,351.86 C271.8,351.86 293.17,321.06 294.17,303.26 C294.87,290.83 282.75,268 276.36,270.44z "/>
      </g>
    </g>
    <g id="_R_G_L_7_G" transform=" translate(540, 540)">
      <path id="_R_G_L_7_G_D_0_P_0" fill="#f6a81b" fill-opacity="1" fill-rule="nonzero" d=" M436.94 88.14 C436.94,88.14 426.1,93.33 426.1,93.33 C426.1,93.33 421.63,95.48 421.63,95.48 C421.63,95.48 414.9,96.23 414.9,96.23 C414.9,96.23 408.45,96.94 408.45,96.94 C408.45,96.94 402.43,88.33 402.43,88.33 C402.43,88.33 398.13,85.52 398.13,85.52 C398.13,85.52 398.08,85.49 398.08,85.49 C398.08,85.49 380.83,74.24 380.83,74.24 C380.83,74.24 374.4,74.11 374.4,74.11 C374.4,74.11 351.23,73.63 351.23,73.63 C351.23,73.63 338,63.62 338,63.62 C338,63.62 336.47,62.47 336.47,62.47 C336.47,62.47 335.24,54.02 335.24,54.02 C335.24,54.02 333.8,44.07 333.8,44.07 C323.88,42.67 313.74,41.95 303.43,41.95 C184.13,41.95 87.42,138.66 87.42,257.96 C87.42,377.25 184.13,473.97 303.43,473.97 C422.73,473.97 519.44,377.25 519.44,257.96 C519.44,189.06 487.18,127.69 436.94,88.14z  M303.43 442.68 C202.88,442.68 121.37,359.97 121.37,257.94 C121.37,155.91 202.88,73.2 303.43,73.2 C403.98,73.2 485.49,155.91 485.49,257.94 C485.49,359.97 403.98,442.68 303.43,442.68z "/>
      <path id="_R_G_L_7_G_D_1_P_0" fill="#221125" fill-opacity="1" fill-rule="nonzero" d=" M303.43 447.21 C200.56,447.21 116.87,362.31 116.87,257.96 C116.87,153.6 200.56,68.7 303.43,68.7 C406.3,68.7 489.99,153.6 489.99,257.96 C489.99,362.31 406.3,447.21 303.43,447.21z  M303.43 77.7 C205.52,77.7 125.87,158.56 125.87,257.96 C125.87,357.35 205.52,438.21 303.43,438.21 C401.33,438.21 480.99,357.35 480.99,257.96 C480.99,158.56 401.33,77.7 303.43,77.7z "/>
      <path id="_R_G_L_7_G_D_2_P_0" fill="#221125" fill-opacity="1" fill-rule="nonzero" d=" M426.1 93.33 C426.1,93.33 421.63,95.48 421.63,95.48 C421.63,95.48 414.9,96.23 414.9,96.23 C465.07,131.97 497.93,191.14 497.93,257.96 C497.93,366.83 410.68,455.41 303.43,455.41 C196.18,455.41 108.92,366.83 108.92,257.96 C108.92,149.08 196.18,60.5 303.43,60.5 C315.22,60.5 326.78,61.57 338,63.62 C338,63.62 336.47,62.47 336.47,62.47 C336.47,62.47 335.24,54.02 335.24,54.02 C324.87,52.36 314.25,51.5 303.43,51.5 C191.22,51.5 99.92,144.12 99.92,257.96 C99.92,371.8 191.22,464.41 303.43,464.41 C415.64,464.41 506.93,371.8 506.93,257.96 C506.93,190.82 475.18,131.06 426.1,93.33z  M380.83 74.24 C380.83,74.24 374.4,74.11 374.4,74.11 C382.58,77.37 390.48,81.18 398.08,85.49 C398.08,85.49 380.83,74.24 380.83,74.24z "/>
    </g>
    <g id="_R_G_L_6_G_N_8_T_0" transform=" translate(540, 540)">
      <g id="_R_G_L_6_G">
        <path id="_R_G_L_6_G_D_0_P_0" fill="#f6a81b" fill-opacity="1" fill-rule="nonzero" d=" M438.57 89.39 C438.57,89.39 427.35,94.33 427.35,94.33 C401.24,74.26 366.86,58.8 333.12,53.4 C333.12,53.4 330.8,44.07 330.8,44.07 C372,48.75 409.34,66.38 438.57,89.39z "/>
        <path id="_R_G_L_6_G_D_1_P_0" fill="#f6a81b" fill-opacity="1" fill-rule="nonzero" d=" M374.4 74.11 C374.4,74.11 350.73,74.26 350.73,74.26 C350.73,74.26 338,63.62 338,63.62 C350.59,65.92 362.77,69.46 374.4,74.11z "/>
        <path id="_R_G_L_6_G_D_2_P_0" fill="#f6a81b" fill-opacity="1" fill-rule="nonzero" d=" M414.9 96.23 C414.9,96.23 408.45,98.57 408.45,98.57 C408.45,98.57 402.43,88.33 402.43,88.33 C402.43,88.33 398.13,85.52 398.13,85.52 C403.9,88.8 409.5,92.38 414.9,96.23z "/>
        <path id="_R_G_L_6_G_D_3_P_0" fill="#221125" fill-opacity="1" fill-rule="nonzero" d=" M426.1 93.33 C426.1,93.33 423.51,96.98 423.51,96.98 C423.51,96.98 414.9,96.23 414.9,96.23 C409.5,92.38 403.9,88.8 398.13,85.52 C398.13,85.52 398.08,85.49 398.08,85.49 C398.08,85.49 380.58,76.49 380.58,76.49 C380.58,76.49 374.4,74.11 374.4,74.11 C362.77,69.46 350.59,65.92 338,63.62 C338,63.62 334.97,62.22 334.97,62.22 C334.97,62.22 333.37,53.65 333.37,53.65 C367.11,59.05 399.99,73.26 426.1,93.33z "/>
      </g>
    </g>
    <g id="_R_G_L_5_G_M">
      <g id="_R_G_L_5_G">
        <g clip-path="url(#_R_G_L_5_C_0)">
          <path id="_R_G_L_5_G_G_0_D_0_P_0" fill="#231226" fill-opacity="1" fill-rule="nonzero" d=" M469.63 325.97 C469.63,325.97 452.14,381.86 389.4,417.86 C326.66,453.86 261.51,435.34 261.51,435.34 C261.51,435.34 244.03,413.4 242.66,368.14 C240.94,341.4 261.86,322.89 264.26,321.86 C266.66,320.83 263.57,316.63 269.74,302.74 C271.8,296.32 275.14,277.54 256.37,267.26 C238.63,267.26 186.43,264.17 133.46,280.89 C123.68,284.74 95.4,294.52 76.11,324.6 C74.31,326.92 69.94,334.37 64.54,319.46 C59.14,304.54 45.26,262.89 90.77,214.03 C136.29,165.17 224.2,133.54 297.5,152.06 C308.31,148.46 357.68,131.23 406.54,176.74 C432,199.63 451.46,246.43 452.14,255.69 C452.14,255.69 442.03,246.94 442.03,246.94 C442.03,246.94 451.29,271.37 447.94,309.94 C452.31,312.52 464.31,318.6 469.63,325.97z "/>
          <path id="_R_G_L_5_G_G_0_D_1_P_0" fill="#fbfcf8" fill-opacity="1" fill-rule="nonzero" d=" M71.91 311.57 C71.91,311.57 45.51,249.17 125.06,193.29 C204.6,137.4 295.46,158.72 295.46,158.72 C295.46,158.72 298.2,171.34 298.2,171.34 C298.2,171.34 299.91,191.92 297.51,198.77 C297.51,204.26 295.8,222.77 295.8,222.77 C295.8,222.77 123,209.06 71.91,311.57z "/>
          <path id="_R_G_L_5_G_G_0_D_2_P_0" fill="#fbfcf8" fill-opacity="1" fill-rule="nonzero" d=" M317.74 234.43 C317.74,234.43 301.97,221.74 312.94,192.94 C320.14,177.86 348.94,175.8 365.06,192.26 C376.71,206.32 380.49,226.2 380.49,226.2 C380.49,226.2 389.06,229.97 396.26,242.32 C403.46,254.66 397.29,276.26 397.29,276.26 C397.29,276.26 392.83,287.23 391.8,288.6 C390.77,289.97 363,305.74 363,305.74 C363,305.74 355.11,318.09 355.11,318.09 C355.11,318.09 339.34,355.8 339.34,355.8 C339.34,355.8 310.2,382.89 310.2,382.89 C310.2,382.89 275.57,394.54 267.34,346.2 C267,330.43 274.2,315 274.2,315 C274.2,315 284.83,288.94 272.83,269.06 C292.63,272.27 321.51,262.54 317.74,234.43z "/>
          <path id="_R_G_L_5_G_G_0_D_3_P_0" fill="#fddf3a" fill-opacity="1" fill-rule="nonzero" d=" M317.74 234.43 C317.74,234.43 337.63,265.46 341.4,280.54 C345.17,295.63 343.8,339.86 304.71,349.11 C278.66,349.8 284.83,329.92 284.83,329.92 C284.83,329.92 288.94,304.89 287.91,302.14 C286.89,299.4 315,276.43 315,276.43 C315,276.43 320.31,257.57 320.31,257.57 C320.31,257.57 317.74,234.43 317.74,234.43z "/>
          <path id="_R_G_L_5_G_G_0_D_4_P_0" fill="#de5e26" fill-opacity="1" fill-rule="nonzero" d=" M272.83 269.06 C272.83,269.06 303.51,273.51 315.69,250.54 C320.14,260.14 330.77,279.34 300.26,290.66 C300.26,290.66 293.4,295.46 285.51,293.06 C282.09,282.09 274.89,271.8 272.83,269.06z "/>
          <path id="_R_G_L_5_G_G_0_D_5_P_0" fill="#f4971e" fill-opacity="1" fill-rule="nonzero" d=" M317.74 237.17 C317.74,237.17 318.77,244.03 315.69,250.54 C317.4,256.2 322.54,258.43 320.14,278.66 C320.14,278.66 322.54,279.34 322.54,279.34 C322.54,279.34 322.89,273.17 322.89,273.17 C322.89,273.17 324.26,273.17 324.26,273.17 C324.26,273.17 325.97,281.74 325.97,281.74 C325.97,281.74 329.06,282.77 329.06,282.77 C329.06,282.77 328.37,261.17 325.97,256.03 C323.57,250.89 317.74,237.17 317.74,237.17z "/>
          <path id="_R_G_L_5_G_G_0_D_6_P_0" fill="#f09120" fill-opacity="1" fill-rule="nonzero" d=" M285.51 292.71 C285.51,292.71 306.43,289.8 312.6,284.31 C312.6,284.31 304.71,299.91 289.29,303 C289.97,307.11 289.29,314.31 289.29,314.31 C289.29,314.31 285.51,292.71 285.51,292.71z "/>
          <path id="_R_G_L_5_G_G_0_D_7_P_0" fill="#eb672d" fill-opacity="1" fill-rule="nonzero" d=" M381.86 233.32 C381.86,233.32 394.71,249.26 393.94,256.46 C393.17,263.66 388.54,278.06 388.54,278.06 C388.54,278.06 380.83,290.4 380.83,290.4 C380.83,290.4 367.71,299.14 367.71,299.14 C367.71,299.14 360.77,305.06 360.77,305.06 C360.77,305.06 357.69,309.94 357.69,309.94 C357.69,309.94 347.66,336.43 329.91,350.32 C312.17,364.2 291.09,362.66 291.09,362.66 C291.09,362.66 280.8,360.09 280.8,360.09 C280.8,360.09 276.94,356.23 276.94,356.23 C276.94,356.23 278.23,364.72 280.8,368.83 C283.37,372.94 320.14,411.26 351.77,345.69 C356.91,325.89 353.83,323.83 370.03,307.12 C376.71,301.2 391.63,298.89 391.63,298.89 C391.63,298.89 410.68,280.71 402.1,253.04 C400.66,248.4 398.23,244.09 394.78,240.67 C392.1,238.02 389.04,236.16 381.86,233.32z "/>
          <path id="_R_G_L_5_G_G_0_D_8_P_0" fill="#231226" fill-opacity="1" fill-rule="nonzero" d=" M289.29 191.91 C289.29,191.91 293.92,227.4 293.92,227.4 C293.92,227.4 236.83,229.97 236.83,229.97 C236.83,229.97 175.63,238.2 175.63,238.2 C175.63,238.2 147.86,250.03 147.86,250.03 C147.86,250.03 117,265.97 117,265.97 C117,265.97 98.49,279.34 98.49,279.34 C98.49,279.34 87.17,289.63 87.17,289.63 C87.17,289.63 78.94,300.94 78.94,300.94 C78.94,300.94 75.86,313.8 75.86,313.8 C75.86,313.8 72.77,314.83 72.77,314.83 C72.77,314.83 68.66,286.54 77.4,270.6 C86.14,254.66 128.83,220.71 128.83,220.71 C128.83,220.71 159.17,208.89 159.17,208.89 C159.17,208.89 188.49,200.14 188.49,200.14 C188.49,200.14 271.8,187.8 271.8,187.8 C271.8,187.8 289.29,191.91 289.29,191.91z "/>
          <path id="_R_G_L_5_G_G_0_D_9_P_0" fill="#eb672d" fill-opacity="1" fill-rule="nonzero" d=" M151.2 220.46 C151.2,220.46 151.97,235.37 147.86,242.83 C147.86,242.83 165.6,236.66 165.6,236.66 C165.6,236.66 164.83,218.91 166.89,215.06 C166.89,215.06 168.17,214.8 168.17,214.8 C168.17,214.8 167.4,229.2 174.34,234.09 C190.8,229.71 191.57,229.71 191.57,229.71 C191.57,229.71 189.77,210.43 193.63,206.31 C194.4,209.14 195.94,223.54 199.8,227.91 C212.4,225.6 216.51,224.31 216.51,224.31 C216.51,224.31 215.74,206.31 219.09,201.69 C220.11,204.51 219.86,218.91 223.97,222.77 C223.97,222.77 241.2,222.77 241.2,222.77 C241.2,222.77 239.4,208.63 241.71,202.2 C242.49,205.03 247.37,220.71 249.17,221.49 C250.97,222.26 266.91,220.97 266.91,220.97 C266.91,220.97 267.43,209.14 269.49,206.06 C270.77,215.31 273.6,221.23 273.6,221.23 C273.6,221.23 292.63,222.26 292.63,222.26 C292.63,222.26 294.69,195.51 294.69,195.51 C294.69,195.51 285.43,191.66 285.43,191.66 C285.43,191.66 224.23,190.11 224.23,190.11 C224.23,190.11 203.91,195.26 202.63,196.54 C201.34,197.83 168.94,204.26 168.94,204.26 C168.94,204.26 150.17,215.83 150.17,215.83 C150.17,215.83 151.2,220.46 151.2,220.46z "/>
          <path id="_R_G_L_5_G_G_0_D_10_P_0" fill="#8054a1" fill-opacity="1" fill-rule="nonzero" d=" M141.51 200.49 C82.54,224.49 68.48,267.34 71.91,311.57 C78.08,246.43 151.8,220.37 151.8,220.37 C151.8,220.37 154.54,209.74 141.51,200.49z "/>
          <path id="_R_G_L_5_G_G_0_D_11_P_0" fill="#ffca07" fill-opacity="1" fill-rule="nonzero" d=" M296.49 171.86 C296.49,171.86 205.71,162.6 140.92,200.4 C143.74,203.23 152.74,208.12 151.71,220.97 C166.89,214.54 208.8,191.66 294.94,198.09 C297,176.49 296.49,171.86 296.49,171.86z "/>
          <path id="_R_G_L_5_G_G_0_D_12_P_0" fill="#f9f3a5" fill-opacity="1" fill-rule="nonzero" d=" M159.43 200.14 C200.06,170.83 285.94,174.43 285.94,174.43 C285.94,174.43 189,180.6 159.43,200.14z "/>
          <path id="_R_G_L_5_G_G_0_D_13_P_0" fill="#fddf3a" fill-opacity="1" fill-rule="nonzero" d=" M366.09 209.91 C366.09,223.26 355.26,234.08 341.91,234.08 C328.56,234.08 317.74,223.26 317.74,209.91 C317.74,196.57 328.56,185.74 341.91,185.74 C355.26,185.74 366.09,196.57 366.09,209.91z "/>
          <path id="_R_G_L_5_G_G_0_D_14_P_0" fill="#231226" fill-opacity="1" fill-rule="nonzero" d=" M360.26 209.4 C360.26,219.63 351.97,227.91 341.74,227.91 C331.52,227.91 323.23,219.63 323.23,209.4 C323.23,199.18 331.52,190.89 341.74,190.89 C351.97,190.89 360.26,199.18 360.26,209.4z "/>
          <path id="_R_G_L_5_G_G_0_D_15_P_0" fill="#fbfcf8" fill-opacity="1" fill-rule="nonzero" d=" M342 204.13 C342,207.18 339.52,209.66 336.47,209.66 C333.42,209.66 330.94,207.18 330.94,204.13 C330.94,201.08 333.42,198.6 336.47,198.6 C339.52,198.6 342,201.08 342,204.13z "/>
          <path id="_R_G_L_5_G_G_0_D_16_P_0" fill="#fbfcf8" fill-opacity="1" fill-rule="nonzero" d=" M339.68 218.27 C342.27,218.73 346.92,218.62 349.91,213.28 C350.26,212.65 351.2,212.88 351.22,213.6 C351.49,220.37 344.57,221.1 344.57,221.1 C344.57,221.1 341.02,221.42 338.97,219.64 C338.37,219.12 338.89,218.14 339.68,218.27z "/>
          <path id="_R_G_L_5_G_G_0_D_17_P_0" fill="#fbd513" fill-opacity="1" fill-rule="nonzero" d=" M352.8 299.91 C352.8,299.91 344.57,340.29 302.4,352.12 C291.34,352.63 283.63,351.86 276.43,341.32 C275.91,352.63 275.66,356.49 277.97,359.83 C280.29,363.17 302.66,380.14 330.69,351.09 C351.77,328.46 352.8,299.91 352.8,299.91z "/>
          <path id="_R_G_L_5_G_G_0_D_18_P_0" fill="#4c435e" fill-opacity="1" fill-rule="nonzero" d=" M271.63 380.32 C271.63,380.32 301.8,417.52 347.23,374.49 C345,381.34 331.97,423 291.34,404.49 C292.03,406.2 295.97,414.94 300.77,419.57 C289.46,414.09 276.6,407.92 274.03,399.34 C271.46,390.77 269.23,379.8 269.23,379.8 C269.23,379.8 271.63,380.32 271.63,380.32z "/>
          <path id="_R_G_L_5_G_G_0_D_19_P_0" fill="#fbfcf8" fill-opacity="1" fill-rule="nonzero" d=" M295.2 236.4 C295.2,236.4 292.37,259.8 269.74,260.31 C269.74,260.31 272.57,251.31 272.57,251.31 C272.57,251.31 280.29,244.89 280.29,244.89 C280.29,244.89 289.8,238.46 289.8,238.46 C289.8,238.46 290.57,235.63 291.34,235.63 C292.11,235.63 295.2,236.4 295.2,236.4z "/>
          <path id="_R_G_L_5_G_G_0_D_20_P_0" fill="#f6a81b" fill-opacity="1" fill-rule="nonzero" d=" M379.54 235.89 C379.54,235.89 397.03,259.54 383.66,280.63 C373.63,294.52 366.43,297.6 360.26,301.46 C359.23,305.32 357.69,309.94 357.69,309.94 C357.69,309.94 383.4,299.91 391.37,277.29 C399.34,254.66 390.86,241.03 379.54,235.89z "/>
          <path id="_R_G_L_5_G_G_0_D_21_P_0" fill="#fbfcf8" fill-opacity="1" fill-rule="nonzero" d=" M260.14 339.69 C260.14,339.69 237.51,382.2 261.86,419.23 C259.8,411.34 250.54,390.43 260.14,339.69z "/>
          <path id="_R_G_L_5_G_G_0_D_22_P_0" fill="#49445e" fill-opacity="1" fill-rule="nonzero" d=" M320.4 176.23 C320.4,176.23 316.29,163.37 316.29,163.37 C316.29,163.37 332.49,157.46 332.49,157.46 C332.49,157.46 373.89,166.72 373.89,166.72 C373.89,166.72 391.89,178.03 391.89,178.03 C391.89,178.03 402.69,187.03 402.69,187.03 C402.69,187.03 408.34,196.8 408.34,196.8 C408.34,196.8 383.4,180.86 383.4,180.86 C383.4,180.86 385.97,188.32 385.97,188.32 C385.97,188.32 391.89,196.54 391.89,196.54 C391.89,196.54 360.51,162.86 320.4,176.23z "/>
          <path id="_R_G_L_5_G_G_0_D_23_P_0" fill="#ef514c" fill-opacity="1" fill-rule="nonzero" d=" M83.06 299.4 C83.06,299.4 91.8,289.37 91.8,289.37 C91.8,289.37 101.57,281.14 101.57,281.14 C101.57,281.14 141.94,263.91 141.94,263.91 C141.94,263.91 165.09,255.94 165.09,255.94 C165.09,255.94 181.29,254.66 181.29,254.66 C181.29,254.66 208.03,250.03 208.03,250.03 C208.03,250.03 227.83,252.09 227.83,252.09 C227.83,252.09 251.49,252.6 251.49,252.6 C251.49,252.6 268.46,249.77 268.46,249.77 C268.46,249.77 274.12,251.83 274.12,251.83 C274.12,251.83 272.57,255.69 272.57,255.69 C272.57,255.69 271.16,260.31 271.16,260.31 C271.16,260.31 256.11,261.34 248.4,260.31 C240.69,259.29 211.37,258.77 193.89,260.31 C176.4,261.86 132.43,266.23 83.06,299.4z "/>
          <path id="_R_G_L_5_G_G_0_D_24_P_0" fill="#80142b" fill-opacity="1" fill-rule="nonzero" d=" M290.83 237.17 C290.83,237.17 290.06,251.83 271.54,256.46 C262.8,256.71 201.09,254.66 191.83,255.94 C182.57,257.23 127.8,266.74 92.83,289.11 C113.4,272.66 127.03,263.91 127.03,263.91 C127.03,263.91 137.83,258.26 137.83,258.26 C137.83,258.26 162,250.29 162,250.29 C162,250.29 187.72,245.91 187.72,245.91 C187.72,245.91 219.6,240.26 221.4,240.26 C223.2,240.26 290.83,237.17 290.83,237.17z "/>
          <path id="_R_G_L_5_G_G_0_D_25_P_0" fill="#fbfcf8" fill-opacity="1" fill-rule="nonzero" d=" M265.97 368.49 C265.97,368.49 259.8,417.17 301.29,438.77 C306.09,439.46 305.06,439.46 305.06,439.46 C305.06,439.46 279.34,425.74 271.46,379.8 C268.03,374.31 265.97,368.49 265.97,368.49z "/>
          <path id="_R_G_L_5_G_G_0_D_26_P_0" fill="#4c435e" fill-opacity="1" fill-rule="nonzero" d=" M405.86 403.46 C405.86,403.46 373.61,360.37 407.72,328.71 C411.87,324.85 416.95,322.14 422.4,320.59 C426.62,319.39 431.93,318.09 436.37,318.09 C436.37,318.09 440.49,318.43 440.49,318.43 C440.49,318.43 434.66,311.91 434.66,311.91 C434.66,311.91 414.77,309.17 414.77,309.17 C414.77,309.17 395.91,309.51 395.91,309.51 C395.91,309.51 382.54,319.11 382.54,319.11 C382.54,319.11 370.2,336.26 370.2,336.26 C370.2,336.26 364.71,351 364.71,351 C364.71,351 364.71,361.97 364.71,361.97 C364.71,361.97 364.03,378.09 364.03,378.09 C364.03,378.09 371.23,394.54 371.23,394.54 C371.23,394.54 378.43,401.06 378.43,401.06 C378.43,401.06 373.97,373.29 378.43,356.83 C378.77,361.97 378.43,386.31 405.86,403.46z "/>
          <path id="_R_G_L_5_G_G_0_D_27_P_0" fill="#fbfcf8" fill-opacity="1" fill-rule="nonzero" d=" M453.17 324.26 C453.17,324.26 437.4,303.34 404.83,306.09 C372.26,308.83 362.32,342.77 361.97,347.91 C361.63,353.06 354.43,388.71 383.57,414.43 C383.57,414.43 363.34,385.63 369.17,351 C375,316.37 412.72,295.8 453.17,324.26z "/>
          <path id="_R_G_L_5_G_G_0_D_28_P_0" fill="#968298" fill-opacity="1" fill-rule="nonzero" d=" M421.63 388.71 C421.63,388.71 396.6,378.77 399.69,349.63 C403.11,360.6 401.06,369.86 421.63,388.71z "/>
          <path id="_R_G_L_5_G_G_0_D_29_P_0" fill="#fbfcf8" fill-opacity="1" fill-rule="nonzero" d=" M311.4 156.94 C311.4,156.94 316.54,164.66 316.54,164.66 C316.54,164.66 355.63,144.09 406.54,194.74 C419.14,209.4 426.09,219.69 434.06,245.4 C434.06,245.4 431.74,202.71 392.91,176.49 C360,152.57 338.14,154.11 311.4,156.94z "/>
          <path id="_R_G_L_5_G_G_0_D_30_P_0" fill="#fbfcf8" fill-opacity="1" fill-rule="nonzero" d=" M311.4 238.71 C311.4,238.71 285.69,225.09 221.66,232.8 C157.63,240.52 98.49,272.14 83.06,299.4 C83.06,299.4 120.34,255.43 196.2,241.29 C272.06,227.14 309.86,241.54 309.86,241.54 C309.86,241.54 311.66,241.54 311.4,238.71z "/>
          <path id="_R_G_L_5_G_G_0_D_31_P_0" fill="#eb672d" fill-opacity="1" fill-rule="nonzero" d=" M134.87 261.47 C134.87,261.47 168.43,253.63 187.2,249.77 C205.97,245.92 267.69,247.2 271.29,247.46 C274.89,247.72 280.28,249 286.46,244.63 C290.06,240.77 290.83,237.17 290.83,237.17 C290.83,237.17 210.99,224.44 134.87,261.47z "/>
          <path id="_R_G_L_5_G_G_0_D_32_P_0" fill="#49445e" fill-opacity="1" fill-rule="nonzero" d=" M299.7 215.96 C303.94,211.33 305.74,206.66 305.74,206.66 C305.74,206.66 308.83,193.29 309.17,179.91 C309.51,166.54 302.31,160.03 302.31,160.03 C302.31,160.03 297.51,159.69 297.51,159.69 C297.51,159.69 304.07,188.31 299.7,215.96z "/>
          <path id="_R_G_L_5_G_G_0_D_33_P_0" fill="#f7981d" fill-opacity="1" fill-rule="nonzero" d=" M369.69 199.11 C369.69,199.11 376.72,212.83 366.43,226.2 C380.83,226.54 375.69,226.37 380.83,226.54 C377.23,212.66 372.94,202.71 369.69,199.11z "/>
        </g>
      </g>
    </g>
    <g id="_R_G_L_4_G">
      <path id="_R_G_L_4_G_D_0_P_0" fill="#231226" fill-opacity="1" fill-rule="nonzero" d=" M334.29 35.57 C334.29,35.57 341.49,22.71 328.89,16.28 C316.29,9.86 309.34,20.91 309.34,20.91 C309.34,20.91 300.6,34.28 314.49,42.26 C315.34,58.54 314.83,95.74 314.83,95.74 C314.83,95.74 307.29,99.69 308.31,104.49 C309.34,109.29 312.94,112.37 312.94,112.37 C312.94,112.37 313.29,114.26 313.29,114.26 C313.29,114.26 309.34,117 308.14,118.71 C306.94,120.43 308.14,123.51 308.14,123.51 C308.14,123.51 311.06,127.63 312.6,129 C314.14,130.37 322.03,136.03 325.11,136.89 C328.2,137.74 363.51,136.03 402.09,162.43 C403.46,163.11 404.66,163.97 404.66,163.97 C404.66,163.97 413.23,167.57 422.14,162.08 C423.51,161.23 426.09,158.66 424.2,152.66 C427.46,152.66 435.69,153.34 435,139.46 C435.04,133.8 432.6,121.8 466.71,91.46 C468.26,91.11 468.94,90.43 468.94,90.43 C468.94,90.43 478.37,90.6 481.11,80.83 C483.86,71.06 477.51,63.51 471.17,62.66 C465.51,62.08 456.43,61.11 452.49,74.66 C452.49,74.66 445.97,81.34 432.94,87.17 C419.91,93 402.43,93.69 403.29,74.66 C402.94,70.03 402.77,58.2 403.46,54.77 C406.03,53.91 415.29,47.06 410.83,35.74 C406.37,24.43 392.31,25.63 388.03,30.26 C383.74,34.89 381,40.2 384.09,47.91 C382.71,50.31 371.4,65.23 367.11,67.63 C362.83,70.03 353.23,74.66 341.91,56.31 C336.77,46.89 334.2,38.31 334.29,35.57z "/>
      <path id="_R_G_L_4_G_D_1_P_0" fill="#fbfcf8" fill-opacity="1" fill-rule="nonzero" d=" M322.97 96.09 C322.97,96.09 323.23,46.2 323.23,46.2 C323.23,46.2 327.51,42.34 327.51,42.34 C327.51,42.34 331.8,55.46 338.66,66.08 C345.51,76.71 355.29,83.4 368.14,75.17 C379.63,66.26 389.57,54.26 389.57,54.26 C389.57,54.26 395.57,55.8 395.57,55.8 C395.57,55.8 395.67,79.11 398.96,85.97 C402.26,92.83 407.74,102.43 424.2,96.09 C440.66,88.37 452.66,81.7 452.66,81.7 C452.66,81.7 455.4,89.4 455.4,89.4 C455.4,89.4 430.2,124.89 428.83,134.31 C424.03,130.03 396.6,115.11 381,110.31 C365.4,105.51 346.71,99.86 322.97,96.09z "/>
      <path id="_R_G_L_4_G_D_2_P_0" fill="#f89c1c" fill-opacity="1" fill-rule="nonzero" d=" M424.63 131.33 C424.63,131.33 452.14,88.03 452.14,88.03 C452.14,88.03 421.2,107.57 408.43,102.43 C395.66,97.29 391.22,87.17 391.63,62.83 C388.17,72.07 375.69,108.69 375.69,108.69 C375.69,108.69 423.6,129.17 424.63,131.33z "/>
      <path id="_R_G_L_4_G_D_3_P_0" fill="#311e31" fill-opacity="1" fill-rule="nonzero" d=" M424.63 131.34 C430.2,123.26 441.98,104.02 452.14,87.86 C425.4,108.94 402.43,118.11 402.43,118.11 C402.43,118.11 424.63,131.34 424.63,131.34z "/>
      <path id="_R_G_L_4_G_D_4_P_0" fill="#fddf3a" fill-opacity="1" fill-rule="nonzero" d=" M331.97 97.65 C331.97,97.65 331.97,64.71 331.97,64.71 C331.97,64.71 337.29,79.29 350.31,83.74 C363.34,88.2 376.03,81.51 391.63,62.83 C388.2,72.09 375.69,108.69 375.69,108.69 C375.69,108.69 354.07,101.71 331.97,97.65z "/>
      <path id="_R_G_L_4_G_D_5_P_0" fill="#f4f3eb" fill-opacity="1" fill-rule="nonzero" d=" M373.6 93.96 C373.6,93.96 376.51,88.64 382.76,92.13 C385.56,93.96 385.91,99.32 381.72,102.17 C376.65,104.73 373.28,100.3 373.08,98.41 C372.77,97.05 372.96,95.3 373.6,93.96z "/>
      <path id="_R_G_L_4_G_D_6_P_0" fill="#000000" fill-opacity="1" fill-rule="nonzero" d=" M373.08 98.41 C373.08,98.41 378.52,102.43 384.86,97.11 C384.01,101.06 381.69,103.29 377.91,102.94 C374.14,102.6 373.08,98.41 373.08,98.41z "/>
      <path id="_R_G_L_4_G_D_7_P_0" fill="#f4f3eb" fill-opacity="1" fill-rule="nonzero" d=" M389.19 37.37 C389.19,37.37 393.47,29.53 402.69,34.67 C406.8,37.37 407.31,45.26 401.14,49.46 C393.69,53.23 388.71,46.71 388.41,43.93 C387.97,41.91 388.24,39.34 389.19,37.37z "/>
      <path id="_R_G_L_4_G_D_8_P_0" fill="#eeea5d" fill-opacity="1" fill-rule="nonzero" d=" M393.69 40.89 C393.69,40.89 395.4,37.37 400.29,37.54 C405.17,37.72 402.69,44.49 402.69,44.49 C402.69,44.49 401.49,46.97 397.63,47.14 C393.77,47.31 391.54,44.74 393.69,40.89z "/>
      <path id="_R_G_L_4_G_D_9_P_0" fill="#000000" fill-opacity="1" fill-rule="nonzero" d=" M403.3 41.76 C403.3,41.76 400.56,45.79 394.9,45.62 C394.11,46.59 395.25,46.82 395.25,46.82 C395.25,46.82 402.94,48.6 403.3,41.76z "/>
      <path id="_R_G_L_4_G_D_10_P_0" fill="#f4f3eb" fill-opacity="1" fill-rule="nonzero" d=" M314.07 24.31 C314.07,24.31 318.36,16.46 327.57,21.61 C331.68,24.31 332.2,32.19 326.03,36.39 C318.57,40.16 313.6,33.65 313.3,30.86 C312.85,28.85 313.13,26.28 314.07,24.31z "/>
      <path id="_R_G_L_4_G_D_11_P_0" fill="#eeea5d" fill-opacity="1" fill-rule="nonzero" d=" M318.57 27.82 C318.57,27.82 320.28,24.31 325.17,24.48 C330.06,24.65 327.57,31.42 327.57,31.42 C327.57,31.42 326.37,33.91 322.51,34.08 C318.65,34.25 316.43,31.68 318.57,27.82z "/>
      <path id="_R_G_L_4_G_D_12_P_0" fill="#000000" fill-opacity="1" fill-rule="nonzero" d=" M328.19 28.7 C328.19,28.7 325.44,32.73 319.79,32.56 C319,33.52 320.13,33.75 320.13,33.75 C320.13,33.75 327.83,35.53 328.19,28.7z "/>
      <path id="_R_G_L_4_G_D_13_P_0" fill="#f4f3eb" fill-opacity="1" fill-rule="nonzero" d=" M458.38 71.92 C458.38,71.92 462.66,64.08 471.88,69.22 C475.99,71.92 476.51,79.81 470.33,84.01 C462.88,87.78 457.91,81.27 457.61,78.48 C457.16,76.47 457.44,73.89 458.38,71.92z "/>
      <path id="_R_G_L_4_G_D_14_P_0" fill="#eeea5d" fill-opacity="1" fill-rule="nonzero" d=" M462.88 75.44 C462.88,75.44 464.59,71.92 469.48,72.09 C474.36,72.27 471.88,79.04 471.88,79.04 C471.88,79.04 470.68,81.52 466.82,81.69 C462.96,81.86 460.73,79.29 462.88,75.44z "/>
      <path id="_R_G_L_4_G_D_15_P_0" fill="#000000" fill-opacity="1" fill-rule="nonzero" d=" M472.49 76.31 C472.49,76.31 469.75,80.34 464.09,80.17 C463.31,81.14 464.44,81.37 464.44,81.37 C464.44,81.37 472.14,83.15 472.49,76.31z "/>
      <path id="_R_G_L_4_G_D_16_P_0" fill="#fbfcf8" fill-opacity="1" fill-rule="nonzero" d=" M315.37 105.01 C315.84,103.72 317.21,102.98 318.58,103.08 C325.21,103.56 352.26,106.04 375.69,115.29 C402.6,125.91 420.09,135.86 426.09,142.37 C428.45,144.73 427.63,147.39 424.03,147 C423.42,146.94 422.84,146.69 422.36,146.31 C416.97,141.96 395.55,126.31 357.34,116.14 C344.63,112.51 326.03,110.09 319.17,109.64 C318.63,109.6 318.1,109.43 317.64,109.14 C315.2,107.6 314.96,106.13 315.37,105.01z "/>
      <path id="_R_G_L_4_G_D_17_P_0" fill="#fbfcf8" fill-opacity="1" fill-rule="nonzero" d=" M320.02 117.7 C329.54,118.37 377.69,123.18 416.62,153.02 C417.86,153.98 418.28,155.79 417.36,157.07 C416.9,157.71 416.16,158.21 415.05,158.34 C414.02,158.46 412.99,158.16 412.12,157.6 C405.09,153.11 375.47,134.69 338.14,127.89 C327,125.48 321.98,124.28 319.46,124.14 C318.35,124.07 317.26,123.61 316.59,122.71 C315.91,121.81 315.61,120.62 316.45,119.35 C317.22,118.18 318.62,117.6 320.02,117.7z "/>
      <path id="_R_G_L_4_G_D_18_P_0" fill="#eb672d" fill-opacity="1" fill-rule="nonzero" d=" M329.66 126.04 C329.66,126.04 357.04,124.16 399.86,142.03 C406.83,145.12 414.56,151.06 417.34,153.47 C418.46,154.44 418.16,155.84 417.47,157.15 C416.86,158.32 415.16,159.77 412.12,157.6 C405.43,154.13 388.54,139.67 329.66,126.04z "/>
    </g>
    <g id="_R_G_L_3_G" transform=" translate(540, 540) translate(0, 0)"/>
    <g id="_R_G_L_2_G_M">
      <g id="_R_G_L_2_G" transform=" translate(540, 540) translate(0, 0)">
        <path id="_R_G_L_2_G_D_0_P_0" fill="#231226" fill-opacity="1" fill-rule="nonzero" d=" M87 -11 C93,-15 68,-15 62,-5 C56,5 41,33 37,34 C33,35 14,45 4,45 C-6,45 -34,24 -36,16 C-38,8 -27,59 -27,59 C-27,59 -32,62 -11,70 C10,78 30,75 41,63 C52,51 58,36 67,17 C76,-2 81,-7 87,-11z "/>
        <path id="_R_G_L_2_G_D_1_P_0" fill="#231226" fill-opacity="1" fill-rule="nonzero" d="  "/>
      </g>
    </g>
    <g id="_R_G_L_1_G_M">
      <g id="_R_G_L_1_G" transform=" translate(500.5, 516) translate(-1531, -1531)">
        <path id="_R_G_L_1_G_D_0_P_0" fill="#231226" fill-opacity="1" fill-rule="nonzero" d=" M1625.39 1535.64 C1625.18,1536.07 1624.99,1536.51 1624.8,1536.96 C1624.71,1537.18 1624.63,1537.39 1624.54,1537.61 C1625.79,1535.11 1626.17,1534.18 1626.15,1534.08 C1625.9,1534.6 1625.63,1535.11 1625.39,1535.64z "/>
        <path id="_R_G_L_1_G_D_1_P_0" fill="#231226" fill-opacity="1" fill-rule="nonzero" d=" M1721.2 1548.28 C1721.26,1547.56 1721.31,1546.85 1721.36,1546.14 C1721.27,1546.14 1721.17,1546.14 1721.07,1546.14 C1716.37,1546.01 1711.75,1544.86 1707.31,1543.42 C1706.09,1543.02 1704.85,1542.68 1703.63,1542.28 C1703.53,1542.25 1703.43,1542.22 1703.34,1542.19 C1701.38,1541.96 1699.41,1541.72 1697.45,1541.47 C1695.43,1541.22 1692.89,1541.17 1690.74,1540.74 C1686.96,1540.61 1683.17,1540.27 1679.39,1540.2 C1672.98,1540.08 1666.42,1540.23 1660,1539.85 C1659.53,1540.11 1659.05,1540.36 1658.59,1540.63 C1655.83,1542.23 1653.17,1543.96 1650.54,1545.76 C1650.08,1546.31 1648.93,1547.33 1648.54,1547.69 C1648.47,1547.76 1648.4,1547.82 1648.34,1547.88 C1645.44,1551.86 1642.53,1555.88 1639.38,1559.66 C1637.41,1562.01 1635.32,1564.33 1633.19,1566.56 C1632.79,1567.18 1632.35,1567.84 1632.21,1568.04 C1631.59,1571.3 1629.88,1574.82 1628.82,1577.91 C1627.12,1582.87 1625.19,1587.82 1622.74,1592.45 C1619.84,1597.94 1615.58,1602.98 1611.67,1607.7 C1607.76,1612.4 1602.98,1616.89 1597.59,1619.77 C1593.08,1622.17 1588.04,1623.42 1583.02,1623.5 C1582.18,1623.69 1581.3,1623.86 1580.39,1623.98 C1575.58,1624.63 1571.45,1624.5 1566.63,1623.21 C1558.53,1621.04 1553.16,1615.17 1547.64,1609.38 C1542.16,1603.65 1539.66,1596.43 1539.98,1589.29 C1539.22,1587.45 1538.58,1585.56 1538.16,1583.68 C1536.66,1576.94 1537.15,1570.48 1537,1563.7 C1536.98,1562.65 1536.94,1561.61 1536.91,1560.56 C1532.74,1563.42 1514.3,1581.3 1515.91,1606.48 C1517.28,1651.74 1534.77,1673.68 1534.77,1673.68 C1534.77,1673.68 1599.91,1692.2 1662.65,1656.2 C1725.4,1620.2 1742.88,1564.31 1742.88,1564.31 C1737.57,1556.94 1725.57,1550.85 1721.2,1548.28z "/>
        <path id="_R_G_L_1_G_D_2_P_0" fill="#4c435e" fill-opacity="1" fill-rule="nonzero" d=" M1544.88 1618.65 C1544.88,1618.65 1575.05,1655.85 1620.48,1612.82 C1618.25,1619.68 1605.23,1661.34 1564.6,1642.82 C1565.28,1644.54 1569.23,1653.28 1574.03,1657.91 C1562.71,1652.42 1549.85,1646.25 1547.28,1637.68 C1544.71,1629.11 1542.48,1618.14 1542.48,1618.14 C1542.48,1618.14 1544.88,1618.65 1544.88,1618.65z "/>
        <path id="_R_G_L_1_G_D_3_P_0" fill="#fbfcf8" fill-opacity="1" fill-rule="nonzero" d=" M1533.4 1578.02 C1533.4,1578.02 1510.77,1620.54 1535.11,1657.57 C1533.05,1649.68 1523.8,1628.77 1533.4,1578.02z "/>
        <path id="_R_G_L_1_G_D_4_P_0" fill="#fbfcf8" fill-opacity="1" fill-rule="nonzero" d=" M1539.23 1606.82 C1539.23,1606.82 1533.05,1655.51 1574.54,1677.11 C1579.34,1677.79 1578.31,1677.79 1578.31,1677.79 C1578.31,1677.79 1552.6,1664.08 1544.71,1618.14 C1541.28,1612.65 1539.23,1606.82 1539.23,1606.82z "/>
        <path id="_R_G_L_1_G_D_5_P_0" fill="#4c435e" fill-opacity="1" fill-rule="nonzero" d=" M1679.11 1641.8 C1679.11,1641.8 1646.87,1598.7 1680.98,1567.05 C1685.13,1563.19 1690.2,1560.48 1695.65,1558.93 C1699.87,1557.73 1705.18,1556.43 1709.63,1556.43 C1709.63,1556.43 1713.74,1556.77 1713.74,1556.77 C1713.74,1556.77 1707.91,1550.25 1707.91,1550.25 C1707.91,1550.25 1688.03,1547.51 1688.03,1547.51 C1688.03,1547.51 1669.17,1547.85 1669.17,1547.85 C1669.17,1547.85 1655.8,1557.45 1655.8,1557.45 C1655.8,1557.45 1643.45,1574.6 1643.45,1574.6 C1643.45,1574.6 1637.97,1589.34 1637.97,1589.34 C1637.97,1589.34 1637.97,1600.31 1637.97,1600.31 C1637.97,1600.31 1637.28,1616.43 1637.28,1616.43 C1637.28,1616.43 1644.48,1632.88 1644.48,1632.88 C1644.48,1632.88 1651.68,1639.4 1651.68,1639.4 C1651.68,1639.4 1647.23,1611.63 1651.68,1595.17 C1652.03,1600.31 1651.68,1624.65 1679.11,1641.8z "/>
        <path id="_R_G_L_1_G_D_6_P_0" fill="#fbfcf8" fill-opacity="1" fill-rule="nonzero" d=" M1726.43 1562.6 C1726.43,1562.6 1710.66,1541.68 1678.08,1544.42 C1645.51,1547.17 1635.57,1581.11 1635.23,1586.25 C1634.88,1591.4 1627.68,1627.05 1656.83,1652.77 C1656.83,1652.77 1636.6,1623.97 1642.43,1589.34 C1648.26,1554.71 1685.97,1534.14 1726.43,1562.6z "/>
        <path id="_R_G_L_1_G_D_7_P_0" fill="#968298" fill-opacity="1" fill-rule="nonzero" d=" M1694.88 1627.05 C1694.88,1627.05 1669.85,1617.11 1672.94,1587.97 C1676.37,1598.94 1674.31,1608.2 1694.88,1627.05z "/>
      </g>
    </g>
    <g id="_R_G_L_0_G_M">
      <g id="_R_G_L_0_G">
        <path id="_R_G_L_0_G_D_0_P_0" fill="#231226" fill-opacity="1" fill-rule="nonzero" d=" M1543 1541.08 C1540.52,1548.81 1537.75,1557.42 1536.53,1565.41 C1535.46,1572.45 1533.2,1580.34 1533.53,1587.42 C1533.86,1594.59 1537.61,1601.32 1540.55,1607.68 C1548.62,1625.13 1562.34,1637.08 1582.9,1632.42 C1582.19,1632.58 1581.47,1632.74 1580.76,1632.91 C1588.2,1632.09 1595.52,1630.2 1602.43,1627.31 C1602,1627.47 1601.56,1627.62 1601.12,1627.78 C1608.69,1625.04 1615.55,1619.4 1620.53,1613.18 C1619.89,1613.97 1619.26,1614.75 1618.63,1615.54 C1628.64,1601.39 1631.9,1584.74 1640.05,1569.72 C1644.57,1561.39 1651.55,1553.07 1660.21,1548.85 C1678.44,1539.97 1697.22,1547.25 1716.21,1547.18 C1717.92,1547.17 1719.61,1547.23 1721.27,1547.34 C1724.38,1509.32 1715.28,1485.28 1715.28,1485.28 C1715.28,1485.28 1725.4,1494.03 1725.4,1494.03 C1724.71,1484.77 1705.25,1437.97 1679.8,1415.08 C1630.94,1369.57 1581.57,1386.79 1570.75,1390.4 C1497.45,1371.88 1409.54,1403.51 1364.03,1452.37 C1318.51,1501.22 1332.4,1542.88 1337.8,1557.8 C1343.2,1572.71 1347.57,1565.25 1349.37,1562.94 C1368.65,1532.85 1396.94,1523.08 1406.71,1519.22 C1459.68,1502.51 1511.88,1505.59 1529.63,1505.59 C1548.4,1515.88 1545.05,1534.65 1543,1541.08z "/>
        <path id="_R_G_L_0_G_D_1_P_0" fill="#fbfcf8" fill-opacity="1" fill-rule="nonzero" d=" M1345.17 1549.91 C1345.17,1549.91 1318.77,1487.51 1398.31,1431.62 C1477.85,1375.74 1568.71,1397.06 1568.71,1397.06 C1568.71,1397.06 1571.45,1409.68 1571.45,1409.68 C1571.45,1409.68 1573.17,1430.25 1570.77,1437.11 C1570.77,1442.6 1569.05,1461.11 1569.05,1461.11 C1569.05,1461.11 1396.25,1447.4 1345.17,1549.91z "/>
        <path id="_R_G_L_0_G_D_2_P_0" fill="#fbfcf8" fill-opacity="1" fill-rule="nonzero" d=" M1591 1472.77 C1591,1472.77 1575.23,1460.08 1586.2,1431.28 C1593.4,1416.2 1622.2,1414.14 1638.31,1430.6 C1649.97,1444.65 1653.74,1464.54 1653.74,1464.54 C1653.74,1464.54 1662.31,1468.31 1669.51,1480.65 C1676.71,1493 1670.54,1514.6 1670.54,1514.6 C1670.54,1514.6 1666.08,1525.57 1665.05,1526.94 C1664.03,1528.31 1636.25,1544.08 1636.25,1544.08 C1636.25,1544.08 1628.37,1556.43 1628.37,1556.43 C1628.37,1556.43 1612.6,1594.14 1612.6,1594.14 C1612.6,1594.14 1583.45,1621.22 1583.45,1621.22 C1583.45,1621.22 1548.83,1632.88 1540.6,1584.54 C1540.25,1568.77 1547.45,1553.34 1547.45,1553.34 C1547.45,1553.34 1558.08,1527.28 1546.08,1507.4 C1565.88,1510.61 1594.77,1500.88 1591,1472.77z "/>
        <path id="_R_G_L_0_G_D_3_P_0" fill="#fddf3a" fill-opacity="1" fill-rule="nonzero" d=" M1591 1472.77 C1591,1472.77 1610.88,1503.8 1614.65,1518.88 C1618.43,1533.97 1617.05,1578.2 1577.97,1587.45 C1551.91,1588.14 1558.08,1568.25 1558.08,1568.25 C1558.08,1568.25 1562.2,1543.23 1561.17,1540.48 C1560.14,1537.74 1588.25,1514.77 1588.25,1514.77 C1588.25,1514.77 1593.57,1495.91 1593.57,1495.91 C1593.57,1495.91 1591,1472.77 1591,1472.77z "/>
        <path id="_R_G_L_0_G_D_4_P_0" fill="#de5e26" fill-opacity="1" fill-rule="nonzero" d=" M1546.08 1507.4 C1546.08,1507.4 1576.77,1511.85 1588.94,1488.88 C1593.4,1498.48 1604.03,1517.68 1573.51,1529 C1573.51,1529 1566.65,1533.8 1558.77,1531.4 C1555.34,1520.43 1548.14,1510.14 1546.08,1507.4z "/>
        <path id="_R_G_L_0_G_D_5_P_0" fill="#f4971e" fill-opacity="1" fill-rule="nonzero" d=" M1591 1475.51 C1591,1475.51 1592.03,1482.37 1588.94,1488.88 C1590.65,1494.54 1595.8,1496.77 1593.4,1517 C1593.4,1517 1595.8,1517.68 1595.8,1517.68 C1595.8,1517.68 1596.14,1511.51 1596.14,1511.51 C1596.14,1511.51 1597.51,1511.51 1597.51,1511.51 C1597.51,1511.51 1599.23,1520.08 1599.23,1520.08 C1599.23,1520.08 1602.31,1521.11 1602.31,1521.11 C1602.31,1521.11 1601.63,1499.51 1599.23,1494.37 C1596.83,1489.22 1591,1475.51 1591,1475.51z "/>
        <path id="_R_G_L_0_G_D_6_P_0" fill="#f09120" fill-opacity="1" fill-rule="nonzero" d=" M1558.77 1531.05 C1558.77,1531.05 1579.68,1528.14 1585.85,1522.65 C1585.85,1522.65 1577.97,1538.25 1562.54,1541.34 C1563.23,1545.45 1562.54,1552.65 1562.54,1552.65 C1562.54,1552.65 1558.77,1531.05 1558.77,1531.05z "/>
        <path id="_R_G_L_0_G_D_7_P_0" fill="#eb672d" fill-opacity="1" fill-rule="nonzero" d=" M1655.11 1471.65 C1655.11,1471.65 1667.97,1487.6 1667.2,1494.8 C1666.43,1502 1661.8,1516.4 1661.8,1516.4 C1661.8,1516.4 1654.08,1528.74 1654.08,1528.74 C1654.08,1528.74 1640.97,1537.48 1640.97,1537.48 C1640.97,1537.48 1634.03,1543.4 1634.03,1543.4 C1634.03,1543.4 1630.94,1548.28 1630.94,1548.28 C1630.94,1548.28 1620.91,1574.77 1603.17,1588.65 C1585.43,1602.54 1564.34,1601 1564.34,1601 C1564.34,1601 1554.06,1598.42 1554.06,1598.42 C1554.06,1598.42 1550.2,1594.57 1550.2,1594.57 C1550.2,1594.57 1551.48,1603.05 1554.06,1607.17 C1556.63,1611.28 1593.4,1649.6 1625.03,1584.02 C1630.17,1564.22 1627.08,1562.17 1643.28,1545.45 C1649.97,1539.54 1664.88,1537.22 1664.88,1537.22 C1664.88,1537.22 1683.94,1519.05 1675.35,1491.38 C1673.91,1486.74 1671.48,1482.43 1668.03,1479.01 C1665.36,1476.36 1662.3,1474.49 1655.11,1471.65z "/>
        <path id="_R_G_L_0_G_D_8_P_0" fill="#231226" fill-opacity="1" fill-rule="nonzero" d=" M1562.54 1430.25 C1562.54,1430.25 1567.17,1465.74 1567.17,1465.74 C1567.17,1465.74 1510.08,1468.31 1510.08,1468.31 C1510.08,1468.31 1448.88,1476.54 1448.88,1476.54 C1448.88,1476.54 1421.11,1488.37 1421.11,1488.37 C1421.11,1488.37 1390.25,1504.31 1390.25,1504.31 C1390.25,1504.31 1371.74,1517.68 1371.74,1517.68 C1371.74,1517.68 1360.43,1527.97 1360.43,1527.97 C1360.43,1527.97 1352.2,1539.28 1352.2,1539.28 C1352.2,1539.28 1349.11,1552.14 1349.11,1552.14 C1349.11,1552.14 1346.03,1553.17 1346.03,1553.17 C1346.03,1553.17 1341.91,1524.88 1350.65,1508.94 C1359.4,1493 1402.08,1459.05 1402.08,1459.05 C1402.08,1459.05 1432.43,1447.22 1432.43,1447.22 C1432.43,1447.22 1461.74,1438.48 1461.74,1438.48 C1461.74,1438.48 1545.05,1426.14 1545.05,1426.14 C1545.05,1426.14 1562.54,1430.25 1562.54,1430.25z "/>
        <path id="_R_G_L_0_G_D_9_P_0" fill="#eb672d" fill-opacity="1" fill-rule="nonzero" d=" M1424.45 1458.8 C1424.45,1458.8 1425.23,1473.71 1421.11,1481.17 C1421.11,1481.17 1438.85,1475 1438.85,1475 C1438.85,1475 1438.08,1457.25 1440.14,1453.4 C1440.14,1453.4 1441.43,1453.14 1441.43,1453.14 C1441.43,1453.14 1440.65,1467.54 1447.6,1472.43 C1464.05,1468.05 1464.83,1468.05 1464.83,1468.05 C1464.83,1468.05 1463.03,1448.77 1466.88,1444.65 C1467.65,1447.48 1469.2,1461.88 1473.05,1466.25 C1485.65,1463.94 1489.77,1462.65 1489.77,1462.65 C1489.77,1462.65 1489,1444.65 1492.34,1440.03 C1493.37,1442.85 1493.11,1457.25 1497.23,1461.11 C1497.23,1461.11 1514.45,1461.11 1514.45,1461.11 C1514.45,1461.11 1512.65,1446.97 1514.97,1440.54 C1515.74,1443.37 1520.63,1459.05 1522.43,1459.83 C1524.23,1460.6 1540.17,1459.31 1540.17,1459.31 C1540.17,1459.31 1540.68,1447.48 1542.74,1444.4 C1544.03,1453.65 1546.85,1459.57 1546.85,1459.57 C1546.85,1459.57 1565.88,1460.6 1565.88,1460.6 C1565.88,1460.6 1567.94,1433.85 1567.94,1433.85 C1567.94,1433.85 1558.68,1430 1558.68,1430 C1558.68,1430 1497.48,1428.45 1497.48,1428.45 C1497.48,1428.45 1477.17,1433.6 1475.88,1434.88 C1474.6,1436.17 1442.2,1442.6 1442.2,1442.6 C1442.2,1442.6 1423.43,1454.17 1423.43,1454.17 C1423.43,1454.17 1424.45,1458.8 1424.45,1458.8z "/>
        <path id="_R_G_L_0_G_D_10_P_0" fill="#8054a1" fill-opacity="1" fill-rule="nonzero" d=" M1414.77 1438.82 C1355.8,1462.82 1341.74,1505.68 1345.17,1549.91 C1351.34,1484.77 1425.05,1458.71 1425.05,1458.71 C1425.05,1458.71 1427.8,1448.08 1414.77,1438.82z "/>
        <path id="_R_G_L_0_G_D_11_P_0" fill="#ffca07" fill-opacity="1" fill-rule="nonzero" d=" M1569.74 1410.2 C1569.74,1410.2 1478.97,1400.94 1414.17,1438.74 C1417,1441.57 1426,1446.45 1424.97,1459.31 C1440.14,1452.88 1482.05,1430 1568.2,1436.42 C1570.25,1414.82 1569.74,1410.2 1569.74,1410.2z "/>
        <path id="_R_G_L_0_G_D_12_P_0" fill="#f9f3a5" fill-opacity="1" fill-rule="nonzero" d=" M1432.68 1438.48 C1473.31,1409.17 1559.2,1412.77 1559.2,1412.77 C1559.2,1412.77 1462.26,1418.94 1432.68,1438.48z "/>
        <path id="_R_G_L_0_G_D_13_P_0" fill="#fddf3a" fill-opacity="1" fill-rule="nonzero" d=" M1639.34 1448.25 C1639.34,1461.6 1628.52,1472.42 1615.17,1472.42 C1601.82,1472.42 1591,1461.6 1591,1448.25 C1591,1434.9 1601.82,1424.08 1615.17,1424.08 C1628.52,1424.08 1639.34,1434.9 1639.34,1448.25z "/>
        <path id="_R_G_L_0_G_D_14_P_0" fill="#231226" fill-opacity="1" fill-rule="nonzero" d=" M1633.51 1447.74 C1633.51,1457.96 1625.22,1466.25 1615,1466.25 C1604.77,1466.25 1596.48,1457.96 1596.48,1447.74 C1596.48,1437.51 1604.77,1429.23 1615,1429.23 C1625.22,1429.23 1633.51,1437.51 1633.51,1447.74z "/>
        <path id="_R_G_L_0_G_D_15_P_0" fill="#fbfcf8" fill-opacity="1" fill-rule="nonzero" d=" M1615.26 1442.47 C1615.26,1445.52 1612.78,1448 1609.73,1448 C1606.67,1448 1604.2,1445.52 1604.2,1442.47 C1604.2,1439.41 1606.67,1436.94 1609.73,1436.94 C1612.78,1436.94 1615.26,1439.41 1615.26,1442.47z "/>
        <path id="_R_G_L_0_G_D_16_P_0" fill="#fbfcf8" fill-opacity="1" fill-rule="nonzero" d=" M1612.93 1456.61 C1615.53,1457.06 1620.18,1456.96 1623.16,1451.62 C1623.51,1450.99 1624.45,1451.22 1624.48,1451.94 C1624.74,1458.71 1617.83,1459.44 1617.83,1459.44 C1617.83,1459.44 1614.28,1459.76 1612.23,1457.98 C1611.62,1457.46 1612.15,1456.48 1612.93,1456.61z "/>
        <path id="_R_G_L_0_G_D_17_P_0" fill="#fbd513" fill-opacity="1" fill-rule="nonzero" d=" M1626.05 1538.25 C1626.05,1538.25 1617.83,1578.62 1575.66,1590.45 C1564.6,1590.97 1556.88,1590.2 1549.68,1579.65 C1549.17,1590.97 1548.91,1594.82 1551.23,1598.17 C1553.54,1601.51 1575.91,1618.48 1603.94,1589.42 C1625.03,1566.8 1626.05,1538.25 1626.05,1538.25z "/>
        <path id="_R_G_L_0_G_D_18_P_0" fill="#fbfcf8" fill-opacity="1" fill-rule="nonzero" d=" M1568.46 1474.74 C1568.46,1474.74 1565.63,1498.14 1543,1498.65 C1543,1498.65 1545.83,1489.65 1545.83,1489.65 C1545.83,1489.65 1553.54,1483.23 1553.54,1483.23 C1553.54,1483.23 1563.05,1476.79 1563.05,1476.79 C1563.05,1476.79 1563.83,1473.97 1564.6,1473.97 C1565.37,1473.97 1568.46,1474.74 1568.46,1474.74z "/>
        <path id="_R_G_L_0_G_D_19_P_0" fill="#f6a81b" fill-opacity="1" fill-rule="nonzero" d=" M1652.8 1474.23 C1652.8,1474.23 1670.28,1497.88 1656.91,1518.97 C1646.88,1532.85 1639.68,1535.94 1633.51,1539.8 C1632.48,1543.65 1630.94,1548.28 1630.94,1548.28 C1630.94,1548.28 1656.65,1538.25 1664.62,1515.63 C1672.6,1493 1664.11,1479.37 1652.8,1474.23z "/>
        <path id="_R_G_L_0_G_D_20_P_0" fill="#49445e" fill-opacity="1" fill-rule="nonzero" d=" M1593.65 1414.57 C1593.65,1414.57 1589.54,1401.71 1589.54,1401.71 C1589.54,1401.71 1605.74,1395.8 1605.74,1395.8 C1605.74,1395.8 1647.14,1405.05 1647.14,1405.05 C1647.14,1405.05 1665.14,1416.37 1665.14,1416.37 C1665.14,1416.37 1675.94,1425.37 1675.94,1425.37 C1675.94,1425.37 1681.6,1435.14 1681.6,1435.14 C1681.6,1435.14 1656.65,1419.2 1656.65,1419.2 C1656.65,1419.2 1659.23,1426.65 1659.23,1426.65 C1659.23,1426.65 1665.14,1434.88 1665.14,1434.88 C1665.14,1434.88 1633.77,1401.2 1593.65,1414.57z "/>
        <path id="_R_G_L_0_G_D_21_P_0" fill="#ef514c" fill-opacity="1" fill-rule="nonzero" d=" M1356.31 1537.74 C1356.31,1537.74 1365.05,1527.71 1365.05,1527.71 C1365.05,1527.71 1374.82,1519.48 1374.82,1519.48 C1374.82,1519.48 1415.2,1502.25 1415.2,1502.25 C1415.2,1502.25 1438.34,1494.28 1438.34,1494.28 C1438.34,1494.28 1454.54,1493 1454.54,1493 C1454.54,1493 1481.28,1488.37 1481.28,1488.37 C1481.28,1488.37 1501.08,1490.42 1501.08,1490.42 C1501.08,1490.42 1524.74,1490.94 1524.74,1490.94 C1524.74,1490.94 1541.71,1488.11 1541.71,1488.11 C1541.71,1488.11 1547.37,1490.17 1547.37,1490.17 C1547.37,1490.17 1545.82,1494.02 1545.82,1494.02 C1545.82,1494.02 1544.41,1498.65 1544.41,1498.65 C1544.41,1498.65 1529.37,1499.68 1521.65,1498.65 C1513.94,1497.63 1484.63,1497.11 1467.14,1498.65 C1449.65,1500.2 1405.68,1504.57 1356.31,1537.74z "/>
        <path id="_R_G_L_0_G_D_22_P_0" fill="#80142b" fill-opacity="1" fill-rule="nonzero" d=" M1564.08 1475.51 C1564.08,1475.51 1563.31,1490.17 1544.8,1494.8 C1536.05,1495.05 1474.34,1493 1465.08,1494.28 C1455.83,1495.57 1401.05,1505.08 1366.08,1527.45 C1386.65,1511 1400.28,1502.25 1400.28,1502.25 C1400.28,1502.25 1411.08,1496.6 1411.08,1496.6 C1411.08,1496.6 1435.26,1488.62 1435.26,1488.62 C1435.26,1488.62 1460.97,1484.25 1460.97,1484.25 C1460.97,1484.25 1492.85,1478.6 1494.65,1478.6 C1496.45,1478.6 1564.08,1475.51 1564.08,1475.51z "/>
        <path id="_R_G_L_0_G_D_23_P_0" fill="#fbfcf8" fill-opacity="1" fill-rule="nonzero" d=" M1584.66 1395.28 C1584.66,1395.28 1589.8,1403 1589.8,1403 C1589.8,1403 1628.88,1382.42 1679.8,1433.08 C1692.4,1447.74 1699.34,1458.02 1707.31,1483.74 C1707.31,1483.74 1705,1441.05 1666.17,1414.82 C1633.25,1390.91 1611.4,1392.45 1584.66,1395.28z "/>
        <path id="_R_G_L_0_G_D_24_P_0" fill="#fbfcf8" fill-opacity="1" fill-rule="nonzero" d=" M1584.65 1477.05 C1584.65,1477.05 1558.94,1463.42 1494.91,1471.14 C1430.88,1478.85 1371.74,1510.48 1356.31,1537.74 C1356.31,1537.74 1393.6,1493.77 1469.45,1479.62 C1545.31,1465.48 1583.11,1479.88 1583.11,1479.88 C1583.11,1479.88 1584.91,1479.88 1584.65,1477.05z "/>
        <path id="_R_G_L_0_G_D_25_P_0" fill="#eb672d" fill-opacity="1" fill-rule="nonzero" d=" M1408.13 1499.81 C1408.13,1499.81 1441.68,1491.97 1460.45,1488.11 C1479.23,1484.25 1540.94,1485.54 1544.54,1485.8 C1548.14,1486.05 1553.54,1487.34 1559.71,1482.97 C1563.31,1479.11 1564.08,1475.51 1564.08,1475.51 C1564.08,1475.51 1484.24,1462.78 1408.13,1499.81z "/>
        <path id="_R_G_L_0_G_D_26_P_0" fill="#49445e" fill-opacity="1" fill-rule="nonzero" d=" M1572.95 1454.3 C1577.2,1449.67 1579,1445 1579,1445 C1579,1445 1582.08,1431.63 1582.43,1418.25 C1582.77,1404.88 1575.57,1398.37 1575.57,1398.37 C1575.57,1398.37 1570.77,1398.03 1570.77,1398.03 C1570.77,1398.03 1577.33,1426.65 1572.95,1454.3z "/>
        <path id="_R_G_L_0_G_D_27_P_0" fill="#f7981d" fill-opacity="1" fill-rule="nonzero" d=" M1642.94 1437.45 C1642.94,1437.45 1649.97,1451.17 1639.68,1464.54 C1654.08,1464.88 1648.94,1464.71 1654.08,1464.88 C1650.48,1451 1646.2,1441.05 1642.94,1437.45z "/>
      </g>
    </g>
  </g>
  <g id="time_group"/>
</svg>